<svg width="387" height="34" viewBox="0 0 387 34" fill="none" xmlns="http://www.w3.org/2000/svg">
<g clip-path="url(#clip0_3_13434)">
<path fill-rule="evenodd" clip-rule="evenodd" d="M5.63475 10.0805C7.47863 10.0805 8.97342 11.5752 8.97342 13.4191V10.0805H12.3121C14.156 10.0805 15.6508 11.5752 15.6508 13.4191C15.6508 15.263 14.156 16.7578 12.3121 16.7578C14.156 16.7578 15.6508 18.2526 15.6508 20.0965C15.6508 21.012 15.2822 21.8415 14.6854 22.4447L14.6729 22.4573L14.6618 22.4683C14.0585 23.066 13.2284 23.4351 12.3121 23.4351C11.402 23.4351 10.5769 23.071 9.97469 22.4804C9.96687 22.4728 9.95906 22.465 9.95128 22.4573C9.94397 22.45 9.93669 22.4426 9.92945 22.4352C9.33814 21.8329 8.97342 21.0073 8.97342 20.0965C8.97342 21.9403 7.47863 23.4351 5.63475 23.4351C3.79086 23.4351 2.29609 21.9403 2.29609 20.0965V16.7578H5.63475C3.79086 16.7578 2.29609 15.263 2.29609 13.4191C2.29609 11.5752 3.79086 10.0805 5.63475 10.0805ZM8.30569 13.4191C8.30569 14.8943 7.10988 16.0901 5.63475 16.0901V10.7482C7.10988 10.7482 8.30569 11.944 8.30569 13.4191ZM14.983 20.0965C14.983 18.6213 13.7872 17.4255 12.3121 17.4255C10.837 17.4255 9.64115 18.6213 9.64115 20.0965H14.983ZM2.96382 17.4255V20.0965C2.96382 21.5716 4.15964 22.7674 5.63475 22.7674C7.10988 22.7674 8.30569 21.5716 8.30569 20.0965V17.4255H2.96382ZM9.64115 16.0901V10.7482H12.3121C13.7872 10.7482 14.983 11.944 14.983 13.4191C14.983 14.8943 13.7872 16.0901 12.3121 16.0901H9.64115Z" fill="#263238"/>
</g>
<g clip-path="url(#clip1_3_13434)">
<path fill-rule="evenodd" clip-rule="evenodd" d="M67.0615 13.4063L63.7276 16.7067C64.3944 17.3668 65.1562 17.9232 65.9867 18.3584C66.2163 18.9613 66.5761 19.5266 67.0662 20.0118C68.9101 21.8371 71.8997 21.8371 73.7436 20.0118C74.2337 19.5266 74.5935 18.9613 74.8231 18.3584C75.6536 17.9232 76.4154 17.3668 77.0822 16.7067L73.751 13.4089C73.7485 13.4065 73.7461 13.404 73.7436 13.4016C71.8997 11.5762 68.9101 11.5762 67.0662 13.4016C67.0646 13.4031 67.0631 13.4047 67.0615 13.4063ZM73.4245 18.9539C72.453 19.2785 71.4331 19.4447 70.4049 19.4447C69.3767 19.4447 68.3568 19.2785 67.3853 18.9539C67.4905 19.0921 67.6067 19.2248 67.734 19.3508C69.2091 20.8111 71.6007 20.8111 73.0758 19.3508C73.203 19.2248 73.3193 19.0921 73.4245 18.9539ZM67.8024 13.9965C68.0529 14.1603 68.3193 14.3005 68.598 14.4148C69.1708 14.6497 69.7848 14.7706 70.4049 14.7706C71.0249 14.7706 71.6389 14.6497 72.2118 14.4148C72.4905 14.3005 72.7568 14.1603 73.0074 13.9965C71.5506 12.6243 69.2591 12.6243 67.8024 13.9965Z" fill="#3B4158"/>
</g>
<g clip-path="url(#clip2_3_13434)">
<path d="M141.183 15.2609C141.185 15.247 141.185 15.2329 141.183 15.219C141.185 15.2076 141.185 15.1961 141.183 15.1847L141.047 14.2056C141.027 14.0885 140.975 13.979 140.896 13.8894L140.872 13.8627L140.829 13.8208L138.475 11.8321L138.541 11.8969C138.487 11.8335 138.419 11.7828 138.342 11.7485C138.265 11.7142 138.182 11.6972 138.098 11.6988H137.383C137.266 11.6965 137.153 11.7328 137.06 11.8016C136.963 11.7332 136.846 11.6971 136.726 11.6988H136.011C135.917 11.6973 135.824 11.7201 135.743 11.7649C135.661 11.8097 135.592 11.875 135.544 11.954C135.471 12.0669 135.443 12.2029 135.467 12.335L135.556 12.9522C135.497 12.9193 135.43 12.9022 135.362 12.9027H131.899C131.775 12.9034 131.654 12.9391 131.55 13.0055C131.449 13.0673 131.368 13.1558 131.316 13.2608L131.048 13.036C130.943 12.9403 130.803 12.8884 130.66 12.8912H125.227C125.102 12.8935 124.98 12.9276 124.873 12.9903C124.727 13.0743 124.619 13.211 124.574 13.3713L122.849 19.0288C122.816 19.122 122.813 19.2225 122.84 19.3175C122.866 19.4125 122.92 19.4977 122.996 19.5622C123.016 19.5786 123.037 19.5939 123.058 19.6079C123.058 19.6079 123.024 19.585 123.004 19.566L125.359 21.5585C125.459 21.6484 125.589 21.6986 125.724 21.6994H131.2C131.325 21.6962 131.447 21.6608 131.553 21.5966C131.614 21.5642 131.668 21.5217 131.713 21.4708L131.732 21.4442L131.763 21.4061L131.787 21.3642L132.043 21.5813C132.141 21.6677 132.269 21.7152 132.401 21.7147H137.888C138.013 21.7106 138.134 21.6752 138.241 21.6118C138.3 21.5775 138.354 21.5352 138.401 21.4861L138.42 21.4594L138.451 21.4213C138.468 21.3972 138.482 21.3717 138.494 21.3451C138.507 21.322 138.517 21.2978 138.525 21.2727L140.099 16.1067V16.061C140.101 16.0432 140.101 16.0254 140.099 16.0076V15.9733C140.101 15.962 140.101 15.9504 140.099 15.939C140.101 15.915 140.101 15.8908 140.099 15.8667H140.604C140.648 15.8706 140.692 15.8706 140.736 15.8667H140.771C140.8 15.8583 140.827 15.8468 140.853 15.8324H140.892L140.962 15.779L140.993 15.7562L141.047 15.6876V15.6648L141.086 15.6C141.084 15.5874 141.084 15.5745 141.086 15.5619C141.084 15.5557 141.084 15.549 141.086 15.5428C141.094 15.5205 141.101 15.4976 141.105 15.4742C141.104 15.4667 141.104 15.4589 141.105 15.4514C141.103 15.44 141.103 15.4285 141.105 15.4171C141.105 15.4171 141.183 15.2685 141.183 15.2609Z" fill="black"/>
<path d="M130.819 13.3255C130.84 13.3438 130.854 13.3678 130.86 13.3944C130.866 13.421 130.864 13.4488 130.854 13.4741L129.132 19.1278C129.111 19.1895 129.066 19.2411 129.008 19.2726C128.961 19.3037 128.906 19.3221 128.849 19.3259H123.377C123.33 19.3237 123.286 19.3047 123.253 19.2726C123.233 19.2546 123.219 19.2312 123.213 19.2054C123.207 19.1796 123.208 19.1526 123.218 19.1278L124.943 13.4741C124.963 13.4116 125.006 13.3586 125.064 13.3255C125.112 13.2966 125.167 13.2796 125.223 13.276H130.695C130.741 13.2764 130.785 13.2941 130.819 13.3255ZM127.963 17.9887L128.992 14.6132H126.109L125.083 17.9887H127.963ZM136.042 13.3827C136.06 13.4039 136.084 13.4208 136.11 13.432C136.136 13.4432 136.165 13.4485 136.193 13.4474H136.905C136.932 13.4477 136.958 13.4412 136.982 13.4285C137.006 13.4158 137.026 13.3974 137.041 13.375C137.053 13.3575 137.062 13.3377 137.067 13.3168C137.071 13.2958 137.072 13.2742 137.068 13.2531L136.928 12.2473C136.915 12.2008 136.891 12.1578 136.858 12.1216C136.839 12.1003 136.816 12.0835 136.79 12.0723C136.763 12.0611 136.735 12.0558 136.706 12.0569H135.995C135.968 12.0566 135.941 12.0631 135.918 12.0758C135.894 12.0884 135.874 12.1068 135.859 12.1292C135.832 12.1826 135.82 12.2169 135.832 12.2473L135.976 13.2531C135.983 13.3021 136.006 13.3475 136.042 13.3827ZM138.3 12.2397C138.286 12.1932 138.262 12.1502 138.23 12.114C138.212 12.0928 138.189 12.0759 138.164 12.0647C138.138 12.0535 138.11 12.0482 138.082 12.0492H137.367C137.34 12.0485 137.314 12.0548 137.291 12.0676C137.267 12.0803 137.248 12.099 137.235 12.1216C137.209 12.1554 137.198 12.1979 137.204 12.2397L137.348 13.2455C137.357 13.294 137.379 13.3389 137.414 13.375C137.433 13.3959 137.456 13.4125 137.482 13.4236C137.508 13.4348 137.537 13.4403 137.565 13.4398H138.28C138.307 13.4401 138.333 13.4336 138.356 13.4209C138.379 13.4082 138.399 13.3898 138.412 13.3674C138.426 13.3504 138.435 13.3306 138.44 13.3095C138.445 13.2884 138.445 13.2665 138.44 13.2455L138.3 12.2397ZM135.416 13.7636L135.346 13.2684H131.899C131.845 13.2713 131.793 13.2884 131.748 13.3179C131.719 13.3332 131.694 13.3544 131.675 13.38C131.655 13.4057 131.642 13.4352 131.635 13.4665L131.347 14.4113C131.336 14.4349 131.332 14.4614 131.336 14.4872C131.34 14.5131 131.352 14.5371 131.371 14.5561C131.404 14.5863 131.446 14.6039 131.491 14.6056H135.68L134.651 17.9811H130.473C130.419 17.9823 130.367 17.9981 130.322 18.0268C130.267 18.061 130.226 18.1139 130.209 18.1753L129.917 19.1202C129.908 19.1444 129.905 19.1708 129.91 19.1963C129.915 19.2219 129.927 19.2456 129.945 19.2649C129.976 19.2972 130.019 19.3162 130.065 19.3183H135.552C135.609 19.3135 135.664 19.2952 135.711 19.2649C135.769 19.2333 135.812 19.1816 135.832 19.1202L137.41 13.9541H135.634C135.606 13.9547 135.578 13.9495 135.552 13.9391C135.525 13.9286 135.502 13.9129 135.482 13.8932C135.45 13.8586 135.427 13.8167 135.416 13.7713V13.7636Z" fill="white"/>
</g>
<g clip-path="url(#clip3_3_13434)">
<path d="M200.278 13.2226C200.278 13.2339 200.278 13.248 200.275 13.2565C200.26 13.3666 200.26 13.4766 200.269 13.5895C200.275 13.6178 200.281 13.646 200.304 13.6686C200.342 13.7109 200.401 13.7024 200.425 13.6516C200.437 13.6262 200.437 13.6008 200.431 13.5754C200.401 13.4682 200.395 13.3553 200.392 13.2452C200.392 13.2396 200.392 13.2311 200.392 13.2226C200.425 13.2198 200.454 13.217 200.481 13.217C200.501 13.2142 200.519 13.2113 200.534 13.2029C200.578 13.1803 200.578 13.1323 200.531 13.1097C200.513 13.1013 200.489 13.0984 200.469 13.0984C200.395 13.1013 200.322 13.1013 200.248 13.1013C200.222 13.1013 200.195 13.1041 200.169 13.1069C200.154 13.1097 200.137 13.1097 200.125 13.1182C200.104 13.1267 200.092 13.1408 200.092 13.1605C200.095 13.1803 200.104 13.1916 200.125 13.2001C200.137 13.2085 200.151 13.2113 200.166 13.2113C200.201 13.2142 200.24 13.2198 200.278 13.2226ZM201.086 13.3525C201.086 13.3553 201.089 13.3581 201.089 13.3581C201.101 13.4343 201.113 13.5077 201.122 13.5811C201.125 13.6065 201.128 13.629 201.145 13.6488C201.183 13.6968 201.242 13.6911 201.269 13.6403C201.28 13.6149 201.283 13.5895 201.278 13.5613C201.26 13.4766 201.251 13.392 201.233 13.3101C201.222 13.2593 201.207 13.2113 201.192 13.1662C201.183 13.138 201.163 13.1182 201.128 13.1154C201.092 13.1097 201.066 13.1267 201.051 13.1521C201.033 13.1747 201.019 13.1972 201.007 13.2226C200.986 13.2678 200.969 13.3129 200.945 13.3553C200.942 13.3666 200.939 13.375 200.933 13.3835C200.931 13.3779 200.928 13.375 200.928 13.375C200.889 13.3045 200.854 13.2339 200.816 13.1662C200.81 13.1605 200.807 13.1549 200.804 13.1493C200.786 13.1239 200.766 13.1097 200.734 13.1097C200.704 13.1126 200.681 13.1295 200.666 13.1549C200.66 13.1662 200.66 13.1747 200.657 13.1859C200.645 13.2763 200.631 13.3666 200.619 13.4569C200.613 13.5077 200.61 13.5585 200.61 13.6093C200.607 13.6206 200.61 13.6347 200.616 13.646C200.622 13.6686 200.639 13.6827 200.663 13.6855C200.692 13.6883 200.713 13.6799 200.722 13.6573C200.731 13.6403 200.734 13.6262 200.736 13.6121C200.748 13.5613 200.757 13.5133 200.766 13.4654C200.772 13.4371 200.775 13.4146 200.784 13.3835C200.789 13.3948 200.795 13.4033 200.801 13.4117C200.828 13.4456 200.854 13.4795 200.886 13.5077C200.919 13.5303 200.945 13.5274 200.972 13.502C200.978 13.4964 200.981 13.4936 200.986 13.4879C201.013 13.4484 201.045 13.4089 201.072 13.3694C201.078 13.3637 201.081 13.3581 201.086 13.3525Z" fill="#3A3B7B"/>
<path d="M194.311 13.2781C194.29 13.3317 194.287 13.3704 194.296 13.4025C194.306 13.4461 194.333 13.4604 194.37 13.4493C194.716 13.3674 195.473 13.6 195.753 13.6649C195.819 13.6785 195.873 13.5966 195.828 13.5231C195.762 13.452 195.005 13.1474 194.716 13.1308C194.603 13.1246 194.401 13.0968 194.311 13.2781Z" fill="#3A3B7B"/>
<path d="M197.271 12.2921C197.308 12.3125 197.328 12.3319 197.338 12.3537C197.354 12.3822 197.346 12.4019 197.32 12.412C197.092 12.5189 196.788 12.9794 196.665 13.1382C196.636 13.1747 196.567 13.1535 196.557 13.0934C196.559 13.0255 196.828 12.5258 196.978 12.3897C197.038 12.3366 197.135 12.2323 197.271 12.2921Z" fill="#3A3B7B"/>
<path d="M195.453 12.0655C195.497 12.0335 195.543 12.0223 195.566 12.0431C195.911 12.3258 196.093 12.7736 196.207 13.1835C196.211 13.193 196.211 13.2067 196.208 13.221C196.206 13.2333 196.197 13.2462 196.182 13.2561C196.166 13.2672 196.153 13.2705 196.146 13.261C195.995 13.0639 195.133 12.2971 195.453 12.0655Z" fill="#3A3B7B"/>
<path d="M188.158 16.9677C188.241 16.9087 188.33 16.8595 188.425 16.8214C188.525 16.7942 188.631 16.7987 188.727 16.8343C188.823 16.87 188.905 16.9348 188.96 17.019C189.009 17.1029 189.028 17.1999 189.014 17.2952C189.001 17.3905 188.955 17.479 188.885 17.5475C188.83 17.6029 188.768 17.6512 188.701 17.6911C188.399 17.8784 188.094 18.0554 187.789 18.2427C187.727 18.2896 187.661 18.3316 187.591 18.3684C187.486 18.4189 187.365 18.4324 187.251 18.4066C187.136 18.3809 187.034 18.3174 186.963 18.2273C186.91 18.1635 186.865 18.0937 186.829 18.0195C186.541 17.4371 186.241 16.8573 185.963 16.2647C185.835 16.0082 185.731 15.7131 185.629 15.4284C185.585 15.3456 185.577 15.2497 185.605 15.161C185.634 15.0723 185.698 14.9978 185.783 14.9533C185.867 14.9089 185.967 14.898 186.06 14.923C186.154 14.948 186.233 15.0069 186.282 15.0872C186.431 15.2779 186.563 15.4804 186.677 15.6926C186.966 16.2057 187.241 16.7188 187.519 17.2165C187.535 17.244 187.553 17.2705 187.573 17.296C187.782 17.2116 187.979 17.1012 188.158 16.9677Z" fill="#3A3B7B"/>
<path d="M191.143 16.7887C190.483 17.5301 189.376 17.3428 188.82 16.3885C188.424 15.7112 188.355 14.5926 189.216 13.8871C189.399 13.7394 189.619 13.6388 189.854 13.5947C190.143 13.555 190.437 13.6038 190.695 13.7342C190.953 13.8646 191.161 14.0699 191.29 14.3207C191.76 15.1417 191.693 16.1884 191.143 16.7887ZM190.875 15.0596C190.805 14.8578 190.665 14.6856 190.477 14.5721C190.371 14.4996 190.242 14.4643 190.112 14.4722C189.982 14.4802 189.859 14.5308 189.763 14.6157C189.381 14.9415 189.301 15.7138 189.579 16.173C189.614 16.2479 189.667 16.3144 189.732 16.368C189.797 16.4215 189.873 16.4608 189.956 16.483C190.038 16.5053 190.125 16.5099 190.209 16.4967C190.294 16.4835 190.374 16.4527 190.445 16.4064C190.652 16.2522 190.804 16.0399 190.88 15.799C190.956 15.5581 190.951 15.3005 190.867 15.0621L190.875 15.0596Z" fill="#3A3B7B"/>
<path d="M193.837 15.3828C193.77 15.3967 193.7 15.3976 193.632 15.3852C193.564 15.3729 193.499 15.3476 193.442 15.311C193.391 15.2833 193.348 15.2452 193.314 15.1995C193.281 15.1538 193.259 15.1016 193.249 15.0467C193.24 14.9917 193.243 14.9354 193.258 14.8817C193.274 14.828 193.302 14.7784 193.34 14.7363C193.406 14.6517 193.501 14.5911 193.607 14.5644C193.886 14.4868 194.173 14.4394 194.463 14.4233C194.526 14.4162 194.591 14.4214 194.652 14.4385C194.714 14.4557 194.771 14.4844 194.821 14.5232C194.871 14.5619 194.912 14.6097 194.942 14.664C194.973 14.7182 194.991 14.7777 194.997 14.8389C195.081 15.1397 195.09 15.4551 195.024 15.7599C194.783 16.7451 193.955 17.0837 193.025 16.7681C192.763 16.6838 192.534 16.5266 192.367 16.3166C192.144 16.0638 191.985 15.7641 191.905 15.4418C191.839 15.1547 191.846 14.8569 191.925 14.573C192.004 14.2892 192.153 14.0276 192.359 13.8101C192.554 13.5738 192.808 13.3878 193.097 13.2688C193.279 13.1723 193.493 13.1448 193.695 13.1919C193.741 13.2041 193.783 13.2279 193.816 13.2608C193.849 13.2937 193.873 13.3345 193.884 13.379C193.895 13.4235 193.894 13.47 193.88 13.5138C193.866 13.5576 193.84 13.597 193.805 13.628C193.738 13.686 193.666 13.7375 193.589 13.7819C193.351 13.9272 193.144 14.1143 192.979 14.3335C192.871 14.4753 192.796 14.6382 192.761 14.8106C192.725 14.983 192.73 15.1608 192.773 15.3315C192.834 15.5642 192.968 15.7731 193.158 15.9292C193.746 16.4423 194.511 15.9472 194.377 15.2468C194.182 15.293 194.011 15.3417 193.837 15.3828Z" fill="#3A3B7B"/>
<path d="M197.43 16.8297C196.561 17.3428 195.572 16.8297 195.355 15.7522C195.198 14.9826 195.497 13.9051 196.545 13.4946C196.768 13.4091 197.01 13.3791 197.248 13.4074C197.534 13.4577 197.797 13.5929 197.999 13.794C198.201 13.9952 198.332 14.2521 198.373 14.5285C198.55 15.4444 198.149 16.4218 197.43 16.8297ZM197.732 15.1031C197.731 14.89 197.653 14.6838 197.51 14.5208C197.433 14.42 197.323 14.3477 197.197 14.3164C197.071 14.285 196.938 14.2965 196.82 14.3489C196.35 14.5439 196.018 15.2519 196.139 15.7728C196.148 15.8545 196.175 15.9333 196.22 16.0037C196.264 16.0741 196.324 16.1344 196.395 16.1803C196.466 16.2262 196.546 16.2567 196.631 16.2696C196.716 16.2825 196.802 16.2776 196.884 16.2551C197.133 16.1717 197.348 16.0159 197.5 15.8093C197.652 15.6028 197.733 15.3559 197.732 15.1031Z" fill="#3A3B7B"/>
<path d="M199.252 17.0452C199.239 17.1391 199.187 17.2242 199.109 17.2817C199.03 17.3391 198.931 17.3644 198.833 17.3518C198.736 17.3392 198.647 17.2898 198.587 17.2145C198.527 17.1393 198.501 17.0442 198.514 16.9503C198.527 16.8564 198.579 16.7714 198.657 16.7139C198.735 16.6564 198.834 16.6311 198.932 16.6437C199.03 16.6563 199.119 16.7057 199.179 16.781C199.239 16.8563 199.265 16.9513 199.252 17.0452ZM199.019 13.5844C199.07 13.5099 199.145 13.4531 199.232 13.4226C199.319 13.3921 199.414 13.3894 199.503 13.4151C199.593 13.4368 199.673 13.4876 199.729 13.5591C199.785 13.6305 199.814 13.7183 199.81 13.8076C199.799 13.9509 199.776 14.0932 199.744 14.2334C199.655 14.7081 199.57 15.1827 199.476 15.6522C199.434 15.8395 199.377 16.019 199.316 16.2089C199.295 16.2682 199.259 16.3218 199.212 16.3654C199.182 16.3981 199.145 16.4232 199.103 16.4384C199.061 16.4536 199.015 16.4583 198.971 16.4522C198.926 16.446 198.884 16.4292 198.848 16.4033C198.812 16.3773 198.784 16.3431 198.765 16.3038C198.733 16.2332 198.716 16.1574 198.714 16.0806C198.714 15.7625 198.714 15.4418 198.736 15.1211C198.772 14.6634 198.844 14.209 198.95 13.7614C198.962 13.7014 198.986 13.6441 199.019 13.5921V13.5844Z" fill="#3A3B7B"/>
<path fill-rule="evenodd" clip-rule="evenodd" d="M187.029 19.1068C186.997 19.1744 186.988 19.2498 187.004 19.3224C187.014 19.418 187.037 19.5121 187.071 19.6024C187.114 19.713 187.162 19.8225 187.221 19.9573C187.234 19.9883 187.249 20.0207 187.263 20.0548C187.343 20.2375 187.443 20.471 187.576 20.8088C187.614 20.9048 187.648 21.0016 187.681 21.099C187.695 21.1384 187.709 21.1779 187.723 21.2175C187.773 21.3582 187.859 21.4847 187.974 21.5849C188.022 21.64 188.087 21.6801 188.159 21.7002C188.233 21.7206 188.311 21.7193 188.384 21.6965C188.457 21.6735 188.521 21.6301 188.568 21.5718C188.614 21.5146 188.641 21.4457 188.647 21.3737C188.677 21.2334 188.666 21.088 188.617 20.9528C188.539 20.7282 188.45 20.5034 188.348 20.2835L188.348 20.2825C188.179 19.9384 188.008 19.5968 187.828 19.2549L187.827 19.2525C187.774 19.1635 187.706 19.0839 187.625 19.0173C187.573 18.9578 187.5 18.9177 187.42 18.9039C187.338 18.8898 187.254 18.904 187.182 18.9441C187.114 18.9813 187.061 19.0383 187.029 19.1068Z" fill="#3A3B7B"/>
<path fill-rule="evenodd" clip-rule="evenodd" d="M189.603 18.2596C189.338 18.1939 189.062 18.1843 188.794 18.2315C188.586 18.2512 188.382 18.2972 188.24 18.3884C188.167 18.4348 188.109 18.4944 188.076 18.5701C188.044 18.6463 188.04 18.7334 188.066 18.8304C188.115 19.0082 188.179 19.181 188.242 19.3533L188.252 19.3812L188.252 19.3818C188.443 19.8823 188.635 20.3811 188.829 20.8781C188.852 20.9565 188.884 21.032 188.924 21.1033L188.925 21.1046C188.979 21.1932 189.048 21.2724 189.129 21.3389C189.17 21.3755 189.22 21.4008 189.275 21.4121C189.33 21.4235 189.387 21.4202 189.44 21.4025C189.493 21.3848 189.54 21.3535 189.576 21.3118C189.612 21.2709 189.635 21.2215 189.643 21.169C189.678 21.0264 189.667 20.8769 189.611 20.7405C189.593 20.6947 189.58 20.6478 189.565 20.5984C189.56 20.5819 189.556 20.5652 189.55 20.5481C189.994 20.3816 190.467 20.1576 190.633 19.6365C190.698 19.4564 190.703 19.2615 190.649 19.0783C190.594 18.8949 190.481 18.7324 190.325 18.6131C190.114 18.4461 189.868 18.3254 189.603 18.2596ZM188.87 18.8987C188.879 18.8963 188.888 18.894 188.897 18.8919C189.186 18.8483 189.481 18.9064 189.729 19.0555C189.839 19.1285 189.883 19.2095 189.891 19.2875C189.899 19.3678 189.869 19.4548 189.808 19.5385C189.692 19.6965 189.481 19.8229 189.291 19.8465C189.152 19.5398 189.011 19.2207 188.87 18.8987Z" fill="#3A3B7B"/>
<path d="M191.364 17.6982C191.679 17.5587 192.069 17.5346 192.374 17.6326C192.451 17.6541 192.517 17.7006 192.562 17.7641C192.607 17.8271 192.628 17.9032 192.621 17.9792C192.621 18.0285 192.608 18.0771 192.584 18.1208C192.56 18.1654 192.525 18.2038 192.482 18.2326C192.439 18.2615 192.39 18.28 192.338 18.2867C192.286 18.2933 192.233 18.2878 192.184 18.2707L192.18 18.2694L192.177 18.2677C192.152 18.255 192.125 18.2455 192.097 18.2393L192.095 18.2389C191.881 18.1842 191.678 18.2748 191.604 18.3862C191.569 18.4393 191.565 18.4929 191.594 18.5417C191.626 18.5939 191.703 18.6525 191.859 18.6942C191.902 18.7056 191.946 18.7165 191.99 18.7276C192.114 18.7582 192.242 18.7901 192.366 18.8343L192.367 18.8344C192.939 19.0434 193.152 19.4762 193.079 19.8832C193.007 20.2857 192.656 20.6521 192.13 20.7385C191.938 20.7793 191.739 20.7713 191.551 20.7155C191.363 20.6594 191.194 20.5572 191.06 20.4188L191.056 20.4152C191.014 20.3631 190.985 20.3018 190.973 20.2368C190.961 20.1782 190.967 20.1176 190.99 20.0622C191.013 20.0071 191.052 19.9594 191.102 19.9246C191.155 19.8852 191.219 19.8616 191.286 19.8567C191.352 19.8518 191.419 19.8657 191.477 19.8966C191.536 19.9237 191.59 19.9582 191.639 19.9992L191.64 20C191.726 20.0757 191.83 20.0954 191.93 20.0771C192.032 20.0586 192.127 20.001 192.188 19.9245C192.249 19.8485 192.274 19.7582 192.245 19.6706C192.216 19.5824 192.128 19.4835 191.935 19.4008C191.884 19.3802 191.832 19.3636 191.777 19.3475C191.763 19.3431 191.748 19.3388 191.733 19.3344C191.692 19.3227 191.651 19.3106 191.61 19.2973C191.582 19.2881 191.555 19.2794 191.527 19.2708C191.452 19.2474 191.379 19.2245 191.308 19.1938C191.155 19.1437 191.022 19.0474 190.93 18.9193C190.838 18.7906 190.792 18.6368 190.798 18.4807C190.798 18.1004 191.048 17.8384 191.364 17.6982Z" fill="#3A3B7B"/>
<path d="M195.354 17.6576C195.293 17.629 195.225 17.6155 195.158 17.6181C195.09 17.6208 195.024 17.6396 194.965 17.673C194.907 17.7061 194.859 17.7524 194.824 17.8079C194.792 17.8546 194.77 17.9069 194.759 17.9617C194.748 18.0165 194.748 18.0729 194.76 18.1275C194.771 18.1978 194.784 18.2662 194.796 18.3336C194.817 18.4451 194.837 18.5541 194.85 18.6653L194.851 18.6681C194.881 18.8425 194.896 19.0188 194.898 19.1955L194.898 19.198C194.908 19.3888 194.84 19.5759 194.709 19.7196L194.707 19.7222C194.664 19.7747 194.607 19.8148 194.542 19.838C194.477 19.8611 194.407 19.8665 194.339 19.8534C194.27 19.8402 194.208 19.8092 194.157 19.7637C194.106 19.7182 194.069 19.6599 194.051 19.5957C194.012 19.4602 193.99 19.3208 193.984 19.1804L194.05 18.1624C194.051 18.1491 194.053 18.1354 194.054 18.1217C194.056 18.0907 194.059 18.0593 194.06 18.0299C194.061 17.9867 194.06 17.9422 194.05 17.9001C194.039 17.8571 194.018 17.8162 193.982 17.7814C193.946 17.7469 193.898 17.7215 193.837 17.7042C193.727 17.6736 193.634 17.6745 193.556 17.7061C193.478 17.7378 193.425 17.7965 193.388 17.8643C193.35 17.9315 193.326 18.0112 193.308 18.0909C193.295 18.1501 193.284 18.2122 193.273 18.2713C193.27 18.2917 193.266 18.3117 193.263 18.3311L193.263 18.3317C193.208 18.656 193.191 18.9852 193.214 19.313C193.218 19.4902 193.257 19.6651 193.327 19.8287C193.407 20.0399 193.552 20.2228 193.743 20.3534C193.933 20.4843 194.161 20.5564 194.396 20.5602C194.63 20.564 194.86 20.4993 195.056 20.3748C195.251 20.2504 195.402 20.0721 195.489 19.8635C195.612 19.5978 195.669 19.3088 195.657 19.0186C195.65 18.8068 195.638 18.5933 195.626 18.3809C195.62 18.2767 195.614 18.1727 195.609 18.0694C195.606 17.9657 195.571 17.8654 195.507 17.7817C195.467 17.7289 195.415 17.6862 195.354 17.6576Z" fill="#3A3B7B"/>
<path d="M197.514 19.2539C197.507 19.2614 197.501 19.2693 197.494 19.2774C197.444 19.0026 197.398 18.7279 197.352 18.4527C197.336 18.354 197.319 18.2549 197.303 18.156L197.301 18.145L197.295 18.1355C197.283 18.1176 197.282 18.1 197.282 18.0625V18.0581L197.281 18.0539C197.269 17.9764 197.232 17.9044 197.177 17.8471C197.121 17.79 197.049 17.7503 196.969 17.733C196.89 17.7142 196.807 17.7184 196.73 17.7449C196.653 17.7714 196.586 17.819 196.538 17.8817C196.497 17.9298 196.464 17.9832 196.439 18.0402C196.383 18.1631 196.326 18.2863 196.269 18.4098L196.268 18.4119C196.126 18.7203 195.982 19.0307 195.843 19.3436L195.843 19.3446C195.757 19.5474 195.687 19.7612 195.616 19.9743C195.602 20.0168 195.588 20.0593 195.574 20.1017C195.549 20.169 195.538 20.2404 195.542 20.3118C195.537 20.3757 195.553 20.4395 195.587 20.4945C195.622 20.5506 195.675 20.5948 195.737 20.6207C195.804 20.6486 195.878 20.6546 195.948 20.6376C196.018 20.6206 196.08 20.5818 196.125 20.5272C196.182 20.46 196.231 20.3867 196.271 20.309C196.389 20.0776 196.501 19.8433 196.614 19.61C196.657 19.5198 196.699 19.439 196.747 19.351C196.75 19.3619 196.754 19.3725 196.757 19.3831C196.808 19.5955 196.892 19.799 197.009 19.9861C197.031 20.0257 197.061 20.0604 197.099 20.0876C197.136 20.1152 197.18 20.1346 197.226 20.1444C197.272 20.1543 197.32 20.1543 197.366 20.1446C197.413 20.1348 197.456 20.1154 197.494 20.088L197.569 20.0344L198.147 19.5664L198.113 19.7758C198.066 20.0636 198.02 20.349 197.97 20.6345C197.938 20.761 197.938 20.8932 197.97 21.0196C197.984 21.0908 198.02 21.1564 198.073 21.2079C198.127 21.2599 198.195 21.2951 198.27 21.3092C198.345 21.3233 198.422 21.3155 198.492 21.2868C198.561 21.2586 198.62 21.2114 198.661 21.1512C198.756 21.0375 198.816 20.8999 198.832 20.7548C198.856 20.5498 198.884 20.342 198.912 20.1343C198.944 19.8948 198.976 19.6555 199.003 19.4207L199.003 19.42C199.029 19.163 199.042 18.9049 199.041 18.6467C199.046 18.5651 199.025 18.4838 198.98 18.4144C198.935 18.3447 198.868 18.2905 198.789 18.2594C198.706 18.2235 198.614 18.2139 198.526 18.2321C198.438 18.2501 198.358 18.2946 198.298 18.359C198.191 18.4538 198.091 18.5552 197.998 18.6626L197.998 18.6634C197.896 18.7847 197.796 18.9084 197.696 19.0313C197.635 19.106 197.574 19.1805 197.514 19.2539Z" fill="#3A3B7B"/>
</g>
<g clip-path="url(#clip4_3_13434)">
<path d="M260.855 12.6481C260.855 12.8036 260.982 12.9298 261.14 12.9298H261.425C261.583 12.9298 261.71 12.8036 261.71 12.6481C261.71 12.4925 261.583 12.3664 261.425 12.3664H261.14C260.982 12.3664 260.855 12.4925 260.855 12.6481Z" fill="#212326"/>
<path d="M252.585 21.3808H253.97L253.567 20.9824C253.46 20.8768 253.315 20.8174 253.164 20.8174H252.585C250.38 20.8174 248.592 19.0517 248.592 16.8736C248.592 14.6955 250.38 12.9298 252.585 12.9298H257.148C259.353 12.9298 261.14 14.6955 261.14 16.8736C261.14 19.0517 259.353 20.8174 257.148 20.8174H255.441C255.214 20.8174 254.996 20.7284 254.836 20.5699L254.363 20.1031C254.096 19.839 253.733 19.6906 253.355 19.6906H252.585C251.01 19.6906 249.733 18.4294 249.733 16.8736C249.733 15.3178 251.01 14.0566 252.585 14.0566H257.148C258.723 14.0566 259.999 15.3178 259.999 16.8736C259.999 18.4294 258.723 19.6906 257.148 19.6906H256.052C255.825 19.6906 255.607 19.6016 255.447 19.4431L254.974 18.9763C254.707 18.7122 254.344 18.5638 253.966 18.5638H252.585C251.64 18.5638 250.874 17.8071 250.874 16.8736C250.874 15.9401 251.64 15.1834 252.585 15.1834H257.148C258.093 15.1834 258.859 15.9401 258.859 16.8736C258.859 17.7957 258.111 18.5453 257.182 18.5635L257.182 18.5638H256.765C256.538 18.5638 256.32 18.4748 256.16 18.3163L255.687 17.8495C255.468 17.6328 255.184 17.494 254.881 17.4511L254.866 17.437H252.585C252.27 17.437 252.014 17.1847 252.014 16.8736C252.014 16.5624 252.27 16.3102 252.585 16.3102H257.148C257.463 16.3102 257.718 16.5624 257.718 16.8736C257.718 17.1847 257.463 17.437 257.148 17.437H256.007L256.41 17.8354C256.517 17.941 256.662 18.0004 256.813 18.0004H257.148C257.778 18.0004 258.288 17.4959 258.288 16.8736C258.288 16.2513 257.778 15.7468 257.148 15.7468H252.585C251.955 15.7468 251.444 16.2513 251.444 16.8736C251.444 17.4959 251.955 18.0004 252.585 18.0004H254.679C254.906 18.0004 255.123 18.0894 255.284 18.2479L255.756 18.7146C256.024 18.9788 256.386 19.1272 256.765 19.1272H257.29V19.1229C258.484 19.0502 259.429 18.0709 259.429 16.8736C259.429 15.629 258.408 14.62 257.148 14.62H252.585C251.325 14.62 250.303 15.629 250.303 16.8736C250.303 18.1182 251.325 19.1272 252.585 19.1272H253.966C254.193 19.1272 254.41 19.2162 254.571 19.3747L255.043 19.8414C255.311 20.1056 255.673 20.254 256.052 20.254H257.148C259.038 20.254 260.57 18.7405 260.57 16.8736C260.57 15.0066 259.038 13.4932 257.148 13.4932H252.585C250.695 13.4932 249.163 15.0066 249.163 16.8736C249.163 18.7405 250.695 20.254 252.585 20.254H253.355C253.582 20.254 253.8 20.343 253.96 20.5015L254.432 20.9682C254.7 21.2324 255.063 21.3808 255.441 21.3808H257.148C259.668 21.3808 261.71 19.3629 261.71 16.8736C261.71 14.3843 259.668 12.3664 257.148 12.3664L252.585 12.3664C250.065 12.3664 248.022 14.3843 248.022 16.8736C248.022 19.3629 250.065 21.3808 252.585 21.3808Z" fill="#212326"/>
</g>
<g clip-path="url(#clip5_3_13434)">
<path d="M311.571 13.368C310.893 13.368 310.243 13.6373 309.763 14.1167L308.199 15.6813C307.719 16.1607 307.45 16.8109 307.45 17.4889C307.45 18.9008 308.595 20.0453 310.006 20.0453C310.684 20.0453 311.335 19.776 311.814 19.2966L312.896 18.2143C312.896 18.2143 312.896 18.2143 312.896 18.2143L316.05 15.061C316.279 14.8321 316.589 14.7034 316.913 14.7034C317.455 14.7034 317.915 15.0568 318.074 15.5457L319.069 14.5505C318.615 13.8395 317.819 13.368 316.913 13.368C316.235 13.368 315.585 13.6373 315.105 14.1167L310.87 18.3523C310.641 18.5812 310.33 18.7098 310.006 18.7098C309.332 18.7098 308.786 18.1632 308.786 17.4889C308.786 17.1651 308.914 16.8546 309.143 16.6256L310.708 15.061C310.937 14.8321 311.247 14.7034 311.571 14.7034C312.113 14.7034 312.573 15.0568 312.732 15.5457L313.727 14.5506C313.273 13.8395 312.477 13.368 311.571 13.368Z" fill="#394149"/>
<path d="M316.212 18.3522C315.983 18.5812 315.672 18.7098 315.348 18.7098C314.806 18.7098 314.347 18.3566 314.187 17.8677L313.192 18.8629C313.646 19.5738 314.442 20.0453 315.348 20.0453C316.026 20.0453 316.677 19.7759 317.156 19.2965L321.391 15.061C321.62 14.832 321.931 14.7034 322.255 14.7034C322.929 14.7034 323.476 15.25 323.476 15.9243C323.476 16.2481 323.347 16.5587 323.118 16.7876L321.553 18.3522C321.325 18.5812 321.014 18.7098 320.69 18.7098C320.148 18.7098 319.688 18.3565 319.529 17.8676L318.534 18.8628C318.988 19.5738 319.784 20.0453 320.69 20.0453C321.368 20.0453 322.018 19.7759 322.498 19.2965L324.062 17.7319C324.542 17.2525 324.811 16.6023 324.811 15.9243C324.811 14.5125 323.667 13.368 322.255 13.368C321.577 13.368 320.927 13.6373 320.447 14.1167L316.212 18.3522Z" fill="#394149"/>
</g>
<g clip-path="url(#clip6_3_13434)">
<path d="M386.909 15.2609C386.911 15.247 386.911 15.2329 386.909 15.219C386.911 15.2076 386.911 15.1961 386.909 15.1847L386.773 14.2056C386.753 14.0885 386.701 13.979 386.621 13.8894L386.598 13.8627L386.555 13.8208L384.2 11.8321L384.266 11.8969C384.212 11.8335 384.145 11.7828 384.068 11.7485C383.991 11.7142 383.908 11.6972 383.823 11.6988H383.108C382.992 11.6965 382.878 11.7328 382.786 11.8016C382.689 11.7332 382.571 11.6971 382.452 11.6988H381.737C381.643 11.6973 381.55 11.7201 381.468 11.7649C381.386 11.8097 381.318 11.875 381.27 11.954C381.196 12.0669 381.169 12.2029 381.193 12.335L381.282 12.9522C381.223 12.9193 381.156 12.9022 381.088 12.9027H377.625C377.501 12.9034 377.38 12.9391 377.275 13.0055C377.175 13.0673 377.094 13.1558 377.042 13.2608L376.774 13.036C376.669 12.9403 376.529 12.8884 376.385 12.8912H370.953C370.828 12.8935 370.706 12.9276 370.599 12.9903C370.453 13.0743 370.345 13.211 370.3 13.3713L368.574 19.0288C368.542 19.122 368.539 19.2225 368.565 19.3175C368.592 19.4125 368.646 19.4977 368.722 19.5622C368.742 19.5786 368.763 19.5939 368.784 19.6079C368.784 19.6079 368.749 19.585 368.73 19.566L371.085 21.5585C371.184 21.6484 371.315 21.6986 371.45 21.6994H376.926C377.051 21.6962 377.173 21.6608 377.279 21.5966C377.34 21.5642 377.393 21.5217 377.439 21.4708L377.458 21.4442L377.489 21.4061L377.512 21.3642L377.769 21.5813C377.867 21.6677 377.994 21.7152 378.126 21.7147H383.614C383.738 21.7106 383.86 21.6752 383.967 21.6118C384.026 21.5775 384.08 21.5352 384.127 21.4861L384.146 21.4594L384.177 21.4213C384.194 21.3972 384.208 21.3717 384.22 21.3451C384.232 21.322 384.243 21.2978 384.251 21.2727L385.825 16.1067V16.061C385.827 16.0432 385.827 16.0254 385.825 16.0076V15.9733C385.827 15.962 385.827 15.9504 385.825 15.939C385.826 15.915 385.826 15.8908 385.825 15.8667H386.33C386.374 15.8706 386.418 15.8706 386.462 15.8667H386.497C386.525 15.8583 386.553 15.8468 386.579 15.8324H386.617L386.687 15.779L386.718 15.7562L386.773 15.6876V15.6648L386.812 15.6C386.81 15.5874 386.81 15.5745 386.812 15.5619C386.81 15.5557 386.81 15.549 386.812 15.5428C386.82 15.5205 386.827 15.4976 386.831 15.4742C386.829 15.4667 386.829 15.4589 386.831 15.4514C386.829 15.44 386.829 15.4285 386.831 15.4171C386.831 15.4171 386.909 15.2685 386.909 15.2609Z" fill="black"/>
<path d="M376.545 13.3255C376.565 13.3438 376.58 13.3678 376.586 13.3944C376.592 13.421 376.59 13.4488 376.58 13.4741L374.858 19.1278C374.837 19.1895 374.792 19.2411 374.734 19.2726C374.686 19.3037 374.632 19.3221 374.575 19.3259H369.103C369.056 19.3237 369.012 19.3047 368.979 19.2726C368.959 19.2546 368.945 19.2312 368.939 19.2054C368.932 19.1796 368.934 19.1526 368.944 19.1278L370.669 13.4741C370.689 13.4116 370.732 13.3586 370.79 13.3255C370.838 13.2966 370.892 13.2796 370.949 13.276H376.42C376.467 13.2764 376.511 13.2941 376.545 13.3255ZM373.689 17.9887L374.718 14.6132H371.835L370.809 17.9887H373.689ZM381.768 13.3827C381.786 13.4039 381.81 13.4208 381.836 13.432C381.862 13.4432 381.891 13.4485 381.919 13.4474H382.63C382.657 13.4477 382.684 13.4412 382.708 13.4285C382.732 13.4158 382.752 13.3974 382.766 13.375C382.779 13.3575 382.788 13.3377 382.793 13.3168C382.797 13.2958 382.798 13.2742 382.794 13.2531L382.654 12.2473C382.64 12.2008 382.616 12.1578 382.584 12.1216C382.565 12.1003 382.542 12.0835 382.516 12.0723C382.489 12.0611 382.461 12.0558 382.432 12.0569H381.721C381.694 12.0566 381.667 12.0631 381.643 12.0758C381.62 12.0884 381.6 12.1068 381.585 12.1292C381.558 12.1826 381.546 12.2169 381.558 12.2473L381.702 13.2531C381.709 13.3021 381.732 13.3475 381.768 13.3827ZM384.026 12.2397C384.012 12.1932 383.988 12.1502 383.956 12.114C383.938 12.0928 383.915 12.0759 383.889 12.0647C383.864 12.0535 383.836 12.0482 383.808 12.0492H383.093C383.066 12.0485 383.04 12.0548 383.017 12.0676C382.993 12.0803 382.974 12.099 382.961 12.1216C382.935 12.1554 382.924 12.1979 382.93 12.2397L383.073 13.2455C383.082 13.294 383.105 13.3389 383.139 13.375C383.158 13.3959 383.182 13.4125 383.208 13.4236C383.234 13.4348 383.262 13.4403 383.291 13.4398H384.006C384.033 13.4401 384.059 13.4336 384.082 13.4209C384.105 13.4082 384.125 13.3898 384.138 13.3674C384.152 13.3504 384.161 13.3306 384.166 13.3095C384.171 13.2884 384.17 13.2665 384.165 13.2455L384.026 12.2397ZM381.142 13.7636L381.072 13.2684H377.625C377.571 13.2713 377.519 13.2884 377.474 13.3179C377.445 13.3332 377.42 13.3544 377.401 13.38C377.381 13.4057 377.368 13.4352 377.361 13.4665L377.073 14.4113C377.062 14.4349 377.058 14.4614 377.062 14.4872C377.066 14.5131 377.078 14.5371 377.097 14.5561C377.129 14.5863 377.172 14.6039 377.217 14.6056H381.406L380.376 17.9811H376.199C376.145 17.9823 376.093 17.9981 376.047 18.0268C375.992 18.061 375.952 18.1139 375.935 18.1753L375.643 19.1202C375.634 19.1444 375.631 19.1708 375.636 19.1963C375.641 19.2219 375.653 19.2456 375.67 19.2649C375.702 19.2972 375.745 19.3162 375.791 19.3183H381.278C381.335 19.3135 381.39 19.2952 381.437 19.2649C381.495 19.2333 381.538 19.1816 381.558 19.1202L383.136 13.9541H381.36C381.331 13.9547 381.304 13.9495 381.277 13.9391C381.251 13.9286 381.228 13.9129 381.208 13.8932C381.176 13.8586 381.153 13.8167 381.142 13.7713V13.7636Z" fill="white"/>
</g>
<defs>
<clipPath id="clip0_3_13434">
<rect width="13.3547" height="13.3547" fill="white" transform="translate(2.29609 10.0805)"/>
</clipPath>
<clipPath id="clip1_3_13434">
<rect width="13.3547" height="9.34826" fill="white" transform="translate(63.7276 12.0325)"/>
</clipPath>
<clipPath id="clip2_3_13434">
<rect width="18.3627" height="10.016" fill="white" transform="translate(122.822 11.6987)"/>
</clipPath>
<clipPath id="clip3_3_13434">
<rect width="15.6917" height="9.68213" fill="white" transform="translate(185.589 12.0325)"/>
</clipPath>
<clipPath id="clip4_3_13434">
<rect width="13.6885" height="9.0144" fill="white" transform="translate(248.022 12.3664)"/>
</clipPath>
<clipPath id="clip5_3_13434">
<rect width="17.3611" height="6.67733" fill="white" transform="translate(307.45 13.368)"/>
</clipPath>
<clipPath id="clip6_3_13434">
<rect width="18.3627" height="10.016" fill="white" transform="translate(368.548 11.6987)"/>
</clipPath>
</defs>
</svg>
