<svg width="22" height="20" viewBox="0 0 22 20" fill="none" xmlns="http://www.w3.org/2000/svg">
<path d="M21.7244 13.1844C21.7244 16.5034 19.0338 19.194 15.7148 19.194L6.70036 19.194C5.77842 19.194 5.03103 18.4466 5.03103 17.5246L5.03103 6.17317C5.03103 4.32928 6.5258 2.83451 8.3697 2.83451L20.055 2.83451C20.977 2.83451 21.7244 3.58189 21.7244 4.50384L21.7244 13.1844Z" fill="#E8F5E9"/>
<path d="M8.03245 3.83612C6.84014 3.83612 5.86948 4.81565 5.86948 6.01304C5.86948 6.77053 6.25845 7.43936 6.84582 7.82922C6.1364 8.06642 5.52255 8.50976 5.07232 9.08974C4.8234 8.89827 4.54527 8.74429 4.24543 8.63395C4.70011 8.2964 4.99723 7.75416 4.99723 7.14473C4.99723 6.12919 4.1759 5.29785 3.16651 5.29785C2.15713 5.29785 1.33579 6.12919 1.33579 7.14473C1.33579 7.75451 1.63317 8.297 2.08823 8.63455C0.883445 9.07913 0.0230026 10.2431 0.0230026 11.613V12.5752C0.0231259 12.6486 0.0524686 12.7189 0.104496 12.7705C0.156522 12.8223 0.226921 12.8511 0.300278 12.8509H4.52201C4.53224 12.852 4.54247 12.8526 4.55271 12.8525H11.5124C11.5227 12.8526 11.533 12.852 11.5431 12.8509H15.7652C15.917 12.8503 16.0399 12.7271 16.0402 12.5752V11.613C16.0402 10.2431 15.1813 9.07913 13.9771 8.63442C14.4322 8.297 14.7296 7.75438 14.7296 7.1446C14.7296 6.12907 13.9082 5.29772 12.8988 5.29772C11.8895 5.29772 11.0681 6.12907 11.0681 7.1446C11.0681 7.75403 11.3654 8.29636 11.8201 8.63383C11.5196 8.74442 11.2413 8.89889 10.9921 9.09084C10.542 8.51051 9.92905 8.06656 9.21966 7.82922C9.80688 7.43936 10.196 6.77053 10.196 6.01304C10.196 4.81565 9.22484 3.83612 8.03252 3.83612H8.03245ZM8.03245 4.38846C8.92421 4.38846 9.64309 5.11217 9.64309 6.01304C9.64309 6.90688 8.93541 7.62356 8.05354 7.63505C8.04651 7.63505 8.03961 7.63406 8.03246 7.63406C8.0253 7.63406 8.01852 7.63505 8.01137 7.63505C7.1295 7.6237 6.42229 6.90691 6.42229 6.01304C6.42229 5.11204 7.14058 4.38846 8.03233 4.38846H8.03245ZM3.16654 5.85015C3.8741 5.85015 4.44493 6.42442 4.44493 7.1447C4.44493 7.86015 3.88149 8.43196 3.18059 8.43972C3.1759 8.43972 3.17134 8.43923 3.16653 8.43923C3.16185 8.43923 3.15729 8.43972 3.15248 8.43972C2.45158 8.43195 1.88814 7.86002 1.88814 7.1447C1.88814 6.42446 2.45897 5.85015 3.16652 5.85015H3.16654ZM12.8987 5.85015C13.6062 5.85015 14.1771 6.42442 14.1771 7.1447C14.1771 7.86015 13.6136 8.43196 12.9127 8.43972C12.908 8.43972 12.9035 8.43923 12.8987 8.43923C12.894 8.43923 12.8894 8.43972 12.8846 8.43972C12.1837 8.43195 11.6203 7.86002 11.6203 7.1447C11.6203 6.42446 12.1911 5.85015 12.8987 5.85015H12.8987ZM8.01131 8.18735C8.01833 8.18747 8.02524 8.18834 8.03239 8.18834C8.03942 8.18834 8.04632 8.18735 8.05347 8.18735C9.82205 8.19869 11.2374 9.62626 11.2374 11.4133L11.2373 12.3H4.82772V11.4133C4.82772 9.6261 6.2427 8.19871 8.01106 8.18735H8.01131ZM3.1454 8.99268C3.15243 8.99281 3.15933 8.99367 3.16648 8.99367C3.17363 8.99367 3.18041 8.99268 3.18756 8.99268C3.78576 8.99749 4.33168 9.20376 4.76639 9.54884C4.45533 10.0992 4.27544 10.7345 4.27544 11.4135V12.298H0.575114V11.6129C0.575114 10.1606 1.71703 9.00402 3.14533 8.99256L3.1454 8.99268ZM12.8775 8.99268C12.8847 8.99281 12.8915 8.99367 12.8986 8.99367C12.9058 8.99367 12.9125 8.99268 12.9197 8.99268C14.348 9.00403 15.4899 10.1607 15.4899 11.6131V12.298H11.7877L11.7876 11.4135C11.7876 10.7349 11.6082 10.1001 11.2977 9.54982C11.7326 9.20425 12.2789 8.99748 12.8776 8.99268H12.8775Z" fill="#103E13"/>
</svg>
