<svg width="23" height="20" viewBox="0 0 23 20" fill="none" xmlns="http://www.w3.org/2000/svg">
<path d="M22.1184 13.1844C22.1184 16.5034 19.4278 19.194 16.1088 19.194L7.0944 19.194C6.17245 19.194 5.42507 18.4466 5.42507 17.5247L5.42507 6.17323C5.42507 4.32934 6.91984 2.83457 8.76373 2.83457L20.4491 2.83457C21.371 2.83457 22.1184 3.58196 22.1184 4.5039L22.1184 13.1844Z" fill="#E8F5E9"/>
<path d="M9.40357 6.8447C9.29939 6.8447 9.21471 6.76015 9.21471 6.65584V6.33489C9.21471 6.23071 9.29926 6.14603 9.40357 6.14603C9.50774 6.14603 9.59243 6.23058 9.59243 6.33489V6.65584C9.59243 6.76015 9.50774 6.8447 9.40357 6.8447Z" fill="#103E13"/>
<path d="M8.6095 6.8447C8.50532 6.8447 8.42064 6.76015 8.42064 6.65584V6.33489C8.42064 6.23071 8.50519 6.14603 8.6095 6.14603C8.71367 6.14603 8.79836 6.23058 8.79836 6.33489V6.65584C8.79823 6.76015 8.71381 6.8447 8.6095 6.8447Z" fill="#103E13"/>
<path d="M7.81555 6.8447C7.71138 6.8447 7.62669 6.76015 7.62669 6.65584V6.33489C7.62669 6.23071 7.71125 6.14603 7.81555 6.14603C7.91973 6.14603 8.00441 6.23058 8.00441 6.33489V6.65584C8.00441 6.76015 7.91986 6.8447 7.81555 6.8447Z" fill="#103E13"/>
<path d="M9.40357 8.15716C9.29939 8.15716 9.21471 8.07261 9.21471 7.9683V7.64748C9.21471 7.5433 9.29926 7.45862 9.40357 7.45862C9.50774 7.45862 9.59243 7.54317 9.59243 7.64748V7.9683C9.59243 8.07261 9.50774 8.15716 9.40357 8.15716Z" fill="#103E13"/>
<path d="M8.6095 8.15716C8.50532 8.15716 8.42064 8.07261 8.42064 7.9683V7.64748C8.42064 7.5433 8.50519 7.45862 8.6095 7.45862C8.71367 7.45862 8.79836 7.54317 8.79836 7.64748V7.9683C8.79823 8.07261 8.71381 8.15716 8.6095 8.15716Z" fill="#103E13"/>
<path d="M7.81555 8.15716C7.71138 8.15716 7.62669 8.07261 7.62669 7.9683V7.64748C7.62669 7.5433 7.71125 7.45862 7.81555 7.45862C7.91973 7.45862 8.00441 7.54317 8.00441 7.64748V7.9683C8.00441 8.07261 7.91986 8.15716 7.81555 8.15716Z" fill="#103E13"/>
<path d="M9.40357 9.4697C9.29939 9.4697 9.21471 9.38515 9.21471 9.28084V8.95989C9.21471 8.85571 9.29926 8.77103 9.40357 8.77103C9.50774 8.77103 9.59243 8.85558 9.59243 8.95989V9.28084C9.59243 9.38515 9.50774 9.4697 9.40357 9.4697Z" fill="#103E13"/>
<path d="M8.6095 9.4697C8.50532 9.4697 8.42064 9.38515 8.42064 9.28084V8.95989C8.42064 8.85571 8.50519 8.77103 8.6095 8.77103C8.71367 8.77103 8.79836 8.85558 8.79836 8.95989V9.28084C8.79823 9.38515 8.71381 9.4697 8.6095 9.4697Z" fill="#103E13"/>
<path d="M7.81555 9.4697C7.71138 9.4697 7.62669 9.38515 7.62669 9.28084V8.95989C7.62669 8.85571 7.71125 8.77103 7.81555 8.77103C7.91973 8.77103 8.00441 8.85558 8.00441 8.95989V9.28084C8.00441 9.38515 7.91986 9.4697 7.81555 9.4697Z" fill="#103E13"/>
<path d="M9.40357 10.782C9.29939 10.782 9.21471 10.6974 9.21471 10.5931V10.2721C9.21471 10.168 9.29926 10.0833 9.40357 10.0833C9.50774 10.0833 9.59243 10.1678 9.59243 10.2721V10.5931C9.59243 10.6974 9.50774 10.782 9.40357 10.782Z" fill="#103E13"/>
<path d="M8.6095 10.782C8.50532 10.782 8.42064 10.6974 8.42064 10.5931V10.2721C8.42064 10.168 8.50519 10.0833 8.6095 10.0833C8.71367 10.0833 8.79836 10.1678 8.79836 10.2721V10.5931C8.79823 10.6974 8.71381 10.782 8.6095 10.782Z" fill="#103E13"/>
<path d="M7.81555 10.782C7.71138 10.782 7.62669 10.6974 7.62669 10.5931V10.2721C7.62669 10.168 7.71125 10.0833 7.81555 10.0833C7.91973 10.0833 8.00441 10.1678 8.00441 10.2721V10.5931C8.00441 10.6974 7.91986 10.782 7.81555 10.782Z" fill="#103E13"/>
<path d="M9.40357 12.0944C9.29939 12.0944 9.21471 12.0099 9.21471 11.9056V11.5847C9.21471 11.4806 9.29926 11.3959 9.40357 11.3959C9.50774 11.3959 9.59243 11.4804 9.59243 11.5847V11.9056C9.59243 12.0097 9.50774 12.0944 9.40357 12.0944Z" fill="#103E13"/>
<path d="M8.6095 12.0944C8.50532 12.0944 8.42064 12.0099 8.42064 11.9056V11.5847C8.42064 11.4806 8.50519 11.3959 8.6095 11.3959C8.71367 11.3959 8.79836 11.4804 8.79836 11.5847V11.9056C8.79823 12.0097 8.71381 12.0944 8.6095 12.0944Z" fill="#103E13"/>
<path d="M7.81555 12.0944C7.71138 12.0944 7.62669 12.0099 7.62669 11.9056L7.62683 11.5847C7.62683 11.4806 7.71138 11.3959 7.81569 11.3959C7.91986 11.3959 8.00454 11.4804 8.00454 11.5847V11.9056C8.00441 12.0097 7.91986 12.0944 7.81555 12.0944Z" fill="#103E13"/>
<path d="M2.42042 13.4005C2.42042 13.5047 2.50497 13.5894 2.60928 13.5894H14.1102C14.2144 13.5894 14.2991 13.5048 14.2991 13.4005C14.2991 13.2964 14.2145 13.2117 14.1102 13.2117H13.7611V7.78925C13.7611 7.68508 13.6766 7.60039 13.5722 7.60039L10.4887 7.60052V3.69124C10.4887 3.62513 10.4542 3.56402 10.3979 3.52977C10.3416 3.4954 10.2713 3.49329 10.2128 3.52372L6.70712 5.34896C6.64457 5.38149 6.60558 5.44602 6.60558 5.51648V8.93116H3.21282C3.10864 8.93116 3.02396 9.01572 3.02396 9.12003V13.2117H2.60885C2.50468 13.2116 2.42026 13.2961 2.42026 13.4004L2.42042 13.4005ZM10.4888 10.4609H13.3836V13.2118L10.4888 13.2117V10.4609ZM10.4888 9.14847H13.3836V10.0833L10.4888 10.0832V9.14847ZM10.4888 7.97804H13.3836V8.77103H10.4888V7.97804ZM6.9831 5.63116L10.111 4.00254V13.2115H6.9831V5.63116ZM4.33528 11.7033C4.33528 11.3113 4.64582 10.9924 5.02762 10.9924C5.40941 10.9924 5.7201 11.3112 5.7201 11.7033V13.2118H4.33528V11.7033ZM3.40167 9.30882H6.60553V13.2117H6.09781V11.7032C6.09781 11.103 5.6179 10.6147 5.02762 10.6147C4.4376 10.6147 3.9577 11.1029 3.9577 11.7032V13.2117H3.40167V9.30882Z" fill="#103E13"/>
</svg>
