<svg width="23" height="20" viewBox="0 0 23 20" fill="none" xmlns="http://www.w3.org/2000/svg">
<path d="M22.5125 13.1844C22.5125 16.5034 19.8219 19.194 16.5029 19.194L7.48849 19.194C6.56654 19.194 5.81915 18.4466 5.81915 17.5246L5.81916 6.17317C5.81916 4.32928 7.31393 2.83451 9.15782 2.83451L20.8432 2.83451C21.7651 2.83451 22.5125 3.58189 22.5125 4.50384L22.5125 13.1844Z" fill="#E8F5E9"/>
<path d="M10.2635 8.39164C10.1831 8.39164 10.1085 8.36953 10.0422 8.33398V8.33492C10.0422 8.46141 9.993 8.58019 9.9038 8.66915C9.8146 8.75835 9.69591 8.80751 9.56957 8.80751C9.48801 8.80751 9.41241 8.78486 9.34539 8.74836C9.33863 8.86407 9.29238 8.97222 9.20987 9.05482C9.12067 9.14402 9.00198 9.19318 8.87556 9.19318C8.6244 9.19318 8.42043 8.99574 8.40573 8.74828C8.32802 8.79028 8.24016 8.81231 8.14954 8.80649C7.90246 8.79028 7.70897 8.57681 7.70897 8.32037V6.19476L7.46693 6.61408C7.37474 6.77447 7.20217 6.87405 7.01638 6.87405C6.92584 6.87405 6.83641 6.85029 6.7572 6.80491C6.65856 6.74772 6.58801 6.65593 6.55866 6.54611C6.52917 6.43623 6.54443 6.32131 6.60145 6.22282C6.60153 6.22282 7.39338 4.85156 7.44169 4.76733C7.44743 4.75467 7.46379 4.71794 7.47772 4.68663C7.49101 4.65674 7.50242 4.62606 7.51335 4.59523C7.75215 3.92106 8.34344 3.50228 9.05655 3.50228C9.98259 3.50228 10.736 4.31922 10.736 5.32338L10.7361 7.91898C10.7361 8.0453 10.687 8.164 10.5979 8.25329C10.5087 8.34249 10.39 8.39165 10.2635 8.39165L10.2635 8.39164ZM9.05656 3.75339C8.4438 3.75339 7.95541 4.0995 7.75004 4.67921C7.73691 4.71602 7.72322 4.75283 7.70725 4.7887C7.66092 4.89261 7.66092 4.89261 7.64786 4.90755L7.64613 4.90606C7.58148 5.02806 7.38939 5.3607 6.81889 6.3485C6.79544 6.38901 6.78923 6.43604 6.80119 6.48104C6.8133 6.52603 6.84233 6.56394 6.88252 6.58715C7.00727 6.6588 7.17812 6.61255 7.24923 6.48867L7.72582 5.66353C7.75429 5.61437 7.81187 5.59022 7.86709 5.60517C7.92199 5.61988 7.96014 5.66967 7.96014 5.72646V8.32044C7.96014 8.44284 8.05248 8.54847 8.166 8.55594C8.23144 8.5594 8.29248 8.53746 8.33834 8.49168C8.38002 8.44999 8.40299 8.39446 8.40299 8.33507V6.63857C8.40299 6.56919 8.45923 6.51295 8.52861 6.51295C8.59799 6.51295 8.65423 6.56911 8.65423 6.63857L8.65415 8.72068C8.65415 8.84276 8.75349 8.9421 8.87557 8.9421C8.93488 8.9421 8.99057 8.91914 9.03234 8.87745C9.07403 8.83568 9.09699 8.77999 9.09699 8.72068V6.63857C9.09699 6.56919 9.15316 6.51295 9.22261 6.51295C9.29199 6.51295 9.34823 6.56911 9.34823 6.63857L9.34815 8.31556V8.33506C9.34815 8.45706 9.4475 8.5564 9.56965 8.5564C9.62888 8.5564 9.68441 8.53336 9.72642 8.49151C9.76811 8.4499 9.79107 8.39437 9.79107 8.33498V6.63848C9.79107 6.5691 9.84724 6.51286 9.91669 6.51286C9.98607 6.51286 10.0423 6.56902 10.0423 6.63848L10.0422 7.91904C10.0422 8.0412 10.1415 8.14054 10.2635 8.14054C10.3229 8.14054 10.3784 8.1175 10.4201 8.07589C10.4619 8.03404 10.4848 7.97835 10.4848 7.91904L10.4849 5.32344C10.4849 4.45781 9.84417 3.75342 9.05655 3.75342L9.05656 3.75339Z" fill="#103E13"/>
<path d="M5.32812 10.1956L7.15093 9.10213C7.3707 8.97014 7.65348 9.02623 7.79443 9.22987C7.84588 9.30405 7.87215 9.39049 7.87624 9.47852C7.9442 9.44304 8.01814 9.42377 8.09341 9.42377C8.13195 9.42377 8.17065 9.42857 8.20888 9.43809C8.33135 9.46868 8.43455 9.54522 8.49945 9.65345C8.56442 9.76184 8.58338 9.88886 8.55278 10.0112C8.52454 10.1244 8.45572 10.2196 8.35999 10.285C8.42693 10.3245 8.48466 10.3784 8.52572 10.447C8.5907 10.5554 8.60965 10.6823 8.57913 10.8048C8.54853 10.9271 8.472 11.0303 8.36361 11.0954L8.36298 11.0958C8.42874 11.1352 8.48545 11.1885 8.52604 11.2561C8.59109 11.3645 8.61005 11.4915 8.57945 11.6139C8.54877 11.7363 8.47224 11.8395 8.36401 11.9045L6.13832 13.2397C5.72292 13.4889 5.24271 13.5748 4.78634 13.4816C4.32587 13.3876 3.94453 13.1229 3.71266 12.7363C3.34571 12.1248 3.4007 11.4022 3.85589 10.8507C3.87674 10.8256 3.89727 10.7999 3.91591 10.7733C3.93565 10.7453 3.9587 10.7122 3.96657 10.7009C4.01368 10.6167 4.7825 9.23154 4.78242 9.23171C4.86005 9.09162 5.00557 9.01232 5.15565 9.0124C5.22565 9.0124 5.29668 9.02963 5.36221 9.06597C5.44134 9.11017 5.5078 9.17459 5.55429 9.25223C5.64986 9.41151 5.65324 9.61084 5.56326 9.77215L5.32812 10.1956ZM5.33905 9.38136C5.31467 9.3407 5.28116 9.30829 5.24017 9.28532C5.15546 9.23844 5.0488 9.26896 5.00216 9.35336C4.45203 10.3445 4.2645 10.6822 4.19213 10.8024L4.19378 10.8028C4.18772 10.8229 4.18772 10.8229 4.1215 10.9176C4.099 10.9496 4.07454 10.9803 4.0496 11.0106C3.65819 11.4848 3.61274 12.0816 3.92792 12.6071C4.12315 12.9326 4.44581 13.1558 4.8365 13.2355C5.23143 13.3158 5.6477 13.2411 6.00898 13.0243L8.23487 11.6891C8.28569 11.6586 8.32156 11.6102 8.33587 11.5529C8.35019 11.4956 8.3413 11.4361 8.31078 11.3853C8.24801 11.2807 8.1117 11.2463 8.00708 11.3093L6.90902 11.9681C6.84955 12.0038 6.77231 11.9846 6.73668 11.925C6.70097 11.8656 6.72024 11.7884 6.7797 11.7527L7.87785 11.0939L8.23448 10.88C8.2853 10.8495 8.32124 10.8011 8.33556 10.7439C8.34987 10.6866 8.34099 10.6269 8.31047 10.5762C8.24762 10.4715 8.1113 10.4374 8.00677 10.5002L6.55199 11.3729C6.49236 11.4087 6.41536 11.3894 6.37965 11.3299C6.34394 11.2704 6.36328 11.1933 6.42267 11.1576L8.20814 10.0865C8.25895 10.056 8.29482 10.0077 8.30913 9.95033C8.32345 9.89306 8.31456 9.83352 8.28412 9.78271C8.25368 9.73197 8.2053 9.6961 8.14796 9.68179C8.0903 9.66747 8.031 9.67636 7.98034 9.70672L7.64982 9.90502C7.64974 9.90502 7.64974 9.9051 7.64966 9.9051H7.64958L6.19488 10.7778C6.13526 10.8137 6.05817 10.7943 6.02254 10.7348C5.98683 10.6753 6.00618 10.5982 6.06557 10.5625L7.52035 9.68973C7.57116 9.65922 7.60711 9.61084 7.62143 9.55366C7.63716 9.49089 7.6252 9.4267 7.58792 9.3729C7.52326 9.27938 7.38498 9.25452 7.28013 9.31752L5.05585 10.6519C5.00716 10.681 4.94479 10.6739 4.90396 10.6345C4.86306 10.595 4.85386 10.533 4.88139 10.4833L5.3439 9.65002C5.39031 9.56672 5.3885 9.46383 5.33902 9.38139L5.33905 9.38136Z" fill="#103E13"/>
<path d="M14.0384 12.7362C13.8066 13.1229 13.4253 13.3875 12.9648 13.4815C12.5083 13.5746 12.0283 13.4888 11.6128 13.2397L9.38689 11.9044C9.27858 11.8394 9.20196 11.7362 9.17129 11.6136C9.14085 11.4913 9.15988 11.3643 9.22478 11.2561C9.26528 11.1884 9.32207 11.1351 9.38791 11.0957L9.38728 11.0953C9.27897 11.0303 9.20236 10.9271 9.17184 10.8047C9.14117 10.6823 9.1602 10.5552 9.22517 10.4468C9.26702 10.3772 9.32436 10.3228 9.38981 10.2842C9.29479 10.2188 9.22635 10.1239 9.19819 10.0112C9.16752 9.88874 9.18655 9.7617 9.25152 9.65346C9.31642 9.54515 9.4197 9.46861 9.54209 9.43802C9.58032 9.42842 9.6191 9.42371 9.65749 9.42371C9.73284 9.42378 9.80678 9.4429 9.87474 9.47845C9.87891 9.39043 9.9051 9.30399 9.95654 9.22981C10.0976 9.02633 10.3801 8.97001 10.6002 9.10206L12.423 10.1954L12.188 9.77223C12.0979 9.61066 12.1012 9.41134 12.1967 9.25198C12.2433 9.17442 12.3099 9.11 12.3894 9.0654C12.4547 9.02922 12.5255 9.01207 12.5954 9.01207C12.7454 9.01215 12.8911 9.09128 12.9686 9.23138C13.2389 9.71836 13.7489 10.6368 13.7848 10.7009C13.7924 10.712 13.8154 10.745 13.8352 10.7731C13.854 10.7998 13.8743 10.8252 13.8953 10.8506C14.3504 11.4023 14.4053 12.1247 14.0384 12.7363L14.0384 12.7362ZM13.7015 11.0107C13.6765 10.9804 13.6519 10.9495 13.6296 10.9176C13.5616 10.8212 13.5599 10.8186 13.5548 10.7934C13.4753 10.662 13.2815 10.313 12.7488 9.35323C12.7021 9.26899 12.5959 9.23824 12.5113 9.28496C12.4697 9.30824 12.4363 9.34073 12.4119 9.38139C12.3625 9.46375 12.3606 9.56663 12.4072 9.65018L12.8696 10.4832C12.8972 10.533 12.888 10.5949 12.8472 10.6344C12.8064 10.674 12.7441 10.6809 12.6952 10.6518L10.4709 9.31744C10.3661 9.25459 10.2279 9.27921 10.1631 9.37282C10.1258 9.42662 10.1139 9.49081 10.1295 9.5535C10.1438 9.61076 10.1797 9.65906 10.2306 9.68957C10.2308 9.68965 10.2309 9.68981 10.231 9.68989L11.6853 10.5624C11.7448 10.5981 11.7641 10.6752 11.7284 10.7347C11.6927 10.7941 11.6157 10.8135 11.556 10.7777L9.77057 9.70665C9.71991 9.67629 9.66029 9.66732 9.60302 9.68171C9.5456 9.69603 9.49731 9.7319 9.46687 9.78279C9.43635 9.83352 9.42754 9.89307 9.4417 9.95033C9.45601 10.0076 9.49196 10.056 9.54277 10.0865L9.89021 10.2949L11.3282 11.1576C11.3876 11.1933 11.4069 11.2704 11.3712 11.3299C11.3355 11.3893 11.2585 11.4087 11.1988 11.373L9.74422 10.5002C9.63961 10.4373 9.50337 10.4714 9.44044 10.5762C9.40992 10.627 9.40111 10.6866 9.41527 10.7438C9.42959 10.8011 9.46553 10.8494 9.51642 10.88L9.87306 11.094L10.971 11.7527C11.0305 11.7884 11.0498 11.8655 11.0141 11.9251C10.9784 11.9844 10.9014 12.004 10.8417 11.9681L9.74375 11.3093C9.69309 11.279 9.6337 11.27 9.57613 11.2844C9.51886 11.2987 9.47041 11.3346 9.43997 11.3853C9.40953 11.4361 9.40064 11.4957 9.4148 11.5529C9.42911 11.6102 9.46506 11.6585 9.51595 11.6891L11.7418 13.0244C12.1031 13.2411 12.5196 13.3161 12.9143 13.2356C13.3049 13.1558 13.6276 12.9326 13.8228 12.6072C14.1383 12.0816 14.0929 11.4847 13.7016 11.0106L13.7015 11.0107Z" fill="#103E13"/>
</svg>
