<svg width="148" height="111" viewBox="0 0 148 111" fill="none" xmlns="http://www.w3.org/2000/svg">
<path d="M74.0011 110.287C105.572 110.287 131.165 108.793 131.165 106.95C131.165 105.106 105.572 103.612 74.0011 103.612C42.4304 103.612 16.8373 105.106 16.8373 106.95C16.8373 108.793 42.4304 110.287 74.0011 110.287Z" fill="#F5F5F5"/>
<path d="M103.263 32.4147L100.338 31.2354C100.338 31.2354 96.4787 38.2729 95.3731 38.6296C93.8695 39.1131 90.7561 40.4575 88.9105 40.6934C88.6599 40.9882 88.2501 41.9051 88.2884 42.2383C90.7679 43.0667 96.2163 41.967 97.3838 41.1002C100.04 39.1337 103.263 32.4147 103.263 32.4147Z" fill="#E58A7B"/>
<path d="M104.162 30.8138C104.707 32.8274 101.753 36.8783 101.753 36.8783L97.882 34.7084C97.882 34.7084 98.6073 33.0426 99.4918 31.3474C100.91 28.6085 103.54 28.5171 104.162 30.8138Z" fill="#4CAF4F"/>
<path opacity="0.2" d="M104.162 30.8138C104.707 32.8274 101.753 36.8783 101.753 36.8783L97.882 34.7084C97.882 34.7084 98.6073 33.0426 99.4918 31.3474C100.91 28.6085 103.54 28.5171 104.162 30.8138Z" fill="black"/>
<path opacity="0.2" d="M99.4181 35.5752L100.942 36.4302L101.211 31.7513C100.323 32.4323 99.6982 34.4843 99.4181 35.5752Z" fill="black"/>
<path d="M101.615 29.2983C101.615 29.2983 98.6014 36.0027 100.359 48.4856H112.231C112.42 46.6636 111.795 37.7716 114.056 29.1863C112.754 28.9318 111.436 28.7634 110.111 28.6821C108.431 28.5848 106.747 28.5848 105.067 28.6821C103.902 28.8004 102.748 29.0064 101.615 29.2983Z" fill="#4CAF4F"/>
<path opacity="0.2" d="M101.615 29.2983C101.615 29.2983 98.6014 36.0027 100.359 48.4856H112.231C112.42 46.6636 111.795 37.7716 114.056 29.1863C112.754 28.9318 111.436 28.7634 110.111 28.6821C108.431 28.5848 106.747 28.5848 105.067 28.6821C103.902 28.8004 102.748 29.0064 101.615 29.2983Z" fill="black"/>
<g style="mix-blend-mode:multiply">
<path d="M98.8608 107.215C98.8431 107.533 103.345 107.79 108.914 107.79C114.484 107.79 119.018 107.533 119.036 107.215C119.053 106.897 114.554 106.643 108.982 106.643C103.41 106.643 98.8815 106.9 98.8608 107.215Z" fill="#E8ECF1"/>
</g>
<path d="M106.786 98.8487L104.68 99.6638L106.494 104.35L108.6 103.535L106.786 98.8487Z" fill="#E58A7B"/>
<path d="M116.176 104.948H113.956L113.142 99.809H115.362L116.176 104.948Z" fill="#E58A7B"/>
<path d="M113.803 104.691H116.297C116.34 104.691 116.382 104.707 116.415 104.735C116.448 104.763 116.47 104.802 116.477 104.845L116.798 106.817C116.805 106.866 116.801 106.917 116.786 106.965C116.772 107.012 116.747 107.057 116.714 107.094C116.681 107.132 116.641 107.162 116.595 107.182C116.55 107.202 116.5 107.213 116.45 107.212C115.58 107.197 115.162 107.144 114.065 107.144C113.39 107.144 112.001 107.215 111.064 107.215C110.126 107.215 110.064 106.295 110.45 106.21C112.184 105.835 112.856 105.325 113.434 104.83C113.536 104.74 113.667 104.691 113.803 104.691Z" fill="#263238"/>
<path d="M106.432 103.931L108.791 103.241C108.833 103.229 108.878 103.232 108.918 103.249C108.958 103.266 108.991 103.296 109.012 103.335L109.896 105.104C109.917 105.149 109.927 105.198 109.927 105.247C109.927 105.296 109.916 105.345 109.895 105.39C109.873 105.434 109.843 105.474 109.805 105.506C109.767 105.537 109.723 105.56 109.675 105.573C108.817 105.809 108.242 105.953 107.169 106.266C106.429 106.481 105.674 106.832 104.943 107.065C104.436 107.227 103.245 107.233 102.629 107.233C101.718 107.233 101.514 106.272 101.906 106.227C102.894 106.118 103.027 106.168 103.572 105.894C104.465 105.504 105.273 104.945 105.954 104.249C106.083 104.103 106.248 103.993 106.432 103.931Z" fill="#263238"/>
<path d="M89.282 40.6816L86.8408 39.6585L85.8354 42.365C86.836 42.5174 87.8539 42.5174 88.8545 42.365L89.282 40.6816Z" fill="#E58A7B"/>
<path d="M85.0247 39.5878L84.9598 41.3862L85.8355 42.3591L86.8408 39.6526L85.0247 39.5878Z" fill="#E58A7B"/>
<path d="M107.075 99.2466L104.963 100.062L105.898 102.485L108.01 101.67L107.075 99.2466Z" fill="#CF6F64"/>
<path d="M115.362 99.809H113.142L113.564 102.459H115.784L115.362 99.809Z" fill="#CF6F64"/>
<path opacity="0.2" d="M99.9812 45.1098C100.025 45.6435 100.076 46.1889 100.14 46.7491L108.968 43.8834C110.346 43.4748 111.544 42.6085 112.364 41.4275C112.399 40.6403 112.444 39.8118 112.511 38.948C112.541 38.5293 112.576 38.0989 112.615 37.6625C112.653 37.2262 112.706 36.7427 112.762 36.2769L99.9812 45.1098Z" fill="black"/>
<path d="M102.865 35.4396L102.57 35.4042C102.744 33.9301 103.843 32.7685 105.002 32.798V33.0928C103.988 33.0722 103.021 34.1188 102.865 35.4396Z" fill="white"/>
<path d="M104.436 38.1608H104.386V37.866C105.4 37.9043 106.352 36.8459 106.509 35.528L106.803 35.5634C106.647 37.0051 105.583 38.1608 104.436 38.1608Z" fill="white"/>
<path d="M109.946 23.0009C109.531 24.6253 109.041 27.6001 110.111 28.6822C110.111 28.6822 109.363 30.3302 106.346 30.3302C103.59 30.3302 105.067 28.6822 105.067 28.6822C106.901 28.2517 106.933 26.9132 106.691 25.6454L109.946 23.0009Z" fill="#E58A7B"/>
<path d="M108.62 24.08L106.694 25.6455C106.754 25.9368 106.789 26.2327 106.798 26.53C107.361 27.0901 108.49 25.672 108.605 24.9467C108.663 24.6612 108.668 24.3673 108.62 24.08Z" fill="#CF6F64"/>
<path d="M103.383 22.9802C103.517 23.2124 103.698 23.4145 103.913 23.5738C104.129 23.733 104.375 23.8461 104.636 23.906C105.344 24.0622 105.698 23.4107 105.503 22.7562C105.329 22.1665 104.749 21.3734 104.029 21.509C103.875 21.5408 103.731 21.609 103.608 21.7079C103.486 21.8069 103.389 21.9337 103.326 22.0778C103.263 22.2218 103.235 22.379 103.245 22.536C103.255 22.693 103.303 22.8453 103.383 22.9802Z" fill="#CF6F64"/>
<path d="M104.554 17.7825C103.451 18.2866 103.062 22.6677 104.448 23.3163C105.833 23.965 106.641 16.8243 104.554 17.7825Z" fill="#263238"/>
<path d="M110.282 20.5568C110.017 22.7562 109.988 24.0504 108.808 25.1767C108.443 25.5504 107.981 25.8159 107.474 25.9438C106.968 26.0717 106.435 26.0571 105.936 25.9015C105.437 25.746 104.991 25.4555 104.647 25.0623C104.302 24.669 104.073 24.1883 103.985 23.6731C103.628 21.6977 104.121 18.434 106.326 17.5584C106.789 17.354 107.299 17.2773 107.802 17.3362C108.305 17.395 108.783 17.5874 109.186 17.8933C109.59 18.1991 109.905 18.6074 110.097 19.0757C110.29 19.544 110.354 20.0554 110.282 20.5568Z" fill="#E58A7B"/>
<path d="M106.659 18.9205C108.292 18.5047 109.492 18.2217 109.062 19.5809C108.493 21.397 107.809 23.1542 108.726 23.2338C109.286 23.2839 111.762 22.2343 111.447 21.17C111.173 20.2442 112.331 19.9907 112.538 19.5219C113.301 17.8237 111.117 18.0478 111.506 17.0159C111.895 15.984 109.737 14.3212 108.558 15.1496C106.638 16.4881 103.345 16.4675 105.076 14.2651C106.317 12.6937 104.103 13.0151 104.103 13.0151C104.103 13.0151 105.441 13.8082 103.189 15.0346C100.807 16.3437 102.991 19.8609 106.659 18.9205Z" fill="#263238"/>
<path d="M111.149 22.9802C110.827 23.4468 110.342 23.7768 109.79 23.906C109.062 24.0622 108.782 23.4107 109.056 22.7562C109.301 22.1665 109.973 21.3734 110.669 21.509C111.364 21.6447 111.524 22.4024 111.149 22.9802Z" fill="#E58A7B"/>
<path d="M100.359 48.4856C100.359 48.4856 98.3655 66.3226 98.2093 73.0918C98.0501 80.1322 104.964 102.1 104.964 102.1L108.502 100.626C108.502 100.626 104.374 80.5538 104.964 73.6402C105.589 66.1015 108.171 48.4974 108.171 48.4974L100.359 48.4856Z" fill="#4CAF4F"/>
<path opacity="0.2" d="M105.312 53.3827C103.723 56.6788 104.793 63.1974 105.654 67.0597C105.981 64.3325 106.37 61.3725 106.739 58.6335C106.703 54.4234 106.376 51.1715 105.312 53.3827Z" fill="black"/>
<path d="M108.345 99.4581C108.363 99.4581 108.764 100.584 108.764 100.584L104.684 102.3L104.041 101.103L108.345 99.4581Z" fill="#4CAF4F"/>
<path d="M104.572 48.4856C104.572 48.4856 106.096 65.4499 107.104 71.8034C108.213 78.7642 112.558 101.946 112.558 101.946H116.624C116.624 101.946 114.189 79.3274 113.729 72.4343C113.228 64.9575 112.231 48.4856 112.231 48.4856H104.572Z" fill="#4CAF4F"/>
<path d="M116.686 100.888C116.704 100.888 116.822 102.023 116.822 102.023H112.352L112.034 100.72L116.686 100.888Z" fill="#4CAF4F"/>
<path opacity="0.2" d="M115.129 99.5436C115.12 99.5437 115.111 99.5405 115.104 99.5346C115.097 99.5286 115.092 99.5203 115.091 99.5112C115.067 99.3048 112.871 78.8734 112.458 72.682C112.01 65.9659 111.108 51.0683 111.099 50.918C111.099 50.9131 111.099 50.9082 111.101 50.9035C111.102 50.8989 111.105 50.8946 111.108 50.891C111.112 50.8874 111.116 50.8845 111.12 50.8826C111.125 50.8806 111.13 50.8796 111.134 50.8796C111.144 50.8796 111.153 50.8832 111.161 50.8898C111.168 50.8964 111.172 50.9054 111.173 50.915C111.173 51.0654 112.084 65.9512 112.532 72.6791C112.945 78.8704 115.141 99.2871 115.162 99.5083C115.163 99.5131 115.162 99.5181 115.161 99.5229C115.16 99.5277 115.158 99.5322 115.155 99.5361C115.152 99.54 115.148 99.5432 115.143 99.5455C115.139 99.5478 115.134 99.5492 115.129 99.5495V99.5436Z" fill="black"/>
<path d="M106.91 21.17C106.91 21.3499 106.798 21.4943 106.68 21.4943C106.562 21.4943 106.476 21.3499 106.488 21.17C106.5 20.9902 106.6 20.8457 106.718 20.8457C106.836 20.8457 106.921 20.9931 106.91 21.17Z" fill="#263238"/>
<path d="M104.887 21.17C104.887 21.3499 104.772 21.4943 104.657 21.4943C104.542 21.4943 104.454 21.3499 104.463 21.17C104.471 20.9902 104.578 20.8457 104.695 20.8457C104.813 20.8457 104.899 20.9931 104.887 21.17Z" fill="#263238"/>
<path d="M105.524 21.2614C105.278 21.8106 104.961 22.325 104.58 22.7915C104.875 23.0864 105.427 22.9507 105.427 22.9507L105.524 21.2614Z" fill="#DF5753"/>
<path d="M105.577 23.7026C105.57 23.7026 105.563 23.7012 105.557 23.6985C105.551 23.6958 105.545 23.6918 105.54 23.6869C105.536 23.6819 105.532 23.676 105.53 23.6696C105.527 23.6632 105.526 23.6563 105.527 23.6495C105.528 23.6352 105.534 23.6216 105.544 23.6118C105.555 23.6019 105.569 23.5964 105.583 23.5964C105.808 23.598 106.031 23.549 106.235 23.4531C106.44 23.3572 106.619 23.2168 106.762 23.0421C106.772 23.0332 106.785 23.0283 106.799 23.0283C106.813 23.0283 106.826 23.0332 106.836 23.0421C106.845 23.052 106.851 23.0653 106.851 23.079C106.851 23.0928 106.845 23.106 106.836 23.1159C106.683 23.3014 106.491 23.4504 106.273 23.552C106.055 23.6535 105.817 23.7049 105.577 23.7026Z" fill="#263238"/>
<path d="M107.269 20.6275C107.255 20.6348 107.24 20.6385 107.224 20.6385C107.208 20.6385 107.192 20.6348 107.178 20.6275C107.068 20.5562 106.942 20.5119 106.812 20.498C106.681 20.4842 106.549 20.5013 106.426 20.5479C106.414 20.5539 106.401 20.5574 106.388 20.5583C106.374 20.5592 106.361 20.5573 106.348 20.5529C106.336 20.5485 106.324 20.5417 106.314 20.5327C106.304 20.5237 106.296 20.5129 106.29 20.5007C106.28 20.4745 106.279 20.445 106.29 20.4186C106.3 20.3922 106.321 20.3709 106.347 20.3592C106.501 20.2963 106.668 20.2714 106.833 20.2868C106.999 20.3022 107.159 20.3574 107.299 20.4477C107.31 20.4554 107.32 20.4652 107.327 20.4767C107.335 20.4881 107.34 20.5009 107.342 20.5144C107.345 20.5278 107.345 20.5416 107.342 20.555C107.339 20.5683 107.333 20.5809 107.325 20.5921C107.31 20.609 107.291 20.6213 107.269 20.6275Z" fill="#263238"/>
<path d="M104.106 20.0379C104.09 20.034 104.076 20.0259 104.065 20.0143C104.055 20.0047 104.047 19.9932 104.042 19.9805C104.036 19.9679 104.034 19.9543 104.034 19.9406C104.034 19.9268 104.036 19.9132 104.042 19.9006C104.047 19.8879 104.055 19.8765 104.065 19.8669C104.178 19.7401 104.318 19.6412 104.476 19.5778C104.633 19.5144 104.803 19.4882 104.973 19.5013C104.986 19.5034 104.999 19.5082 105.011 19.5155C105.022 19.5229 105.032 19.5325 105.04 19.5438C105.048 19.5551 105.053 19.5679 105.056 19.5814C105.058 19.5949 105.058 19.6088 105.055 19.6221C105.049 19.6494 105.033 19.6735 105.01 19.6898C104.987 19.7061 104.959 19.7135 104.931 19.7106C104.797 19.7022 104.663 19.7243 104.539 19.7754C104.415 19.8265 104.304 19.9051 104.215 20.0054C104.201 20.0203 104.184 20.0313 104.165 20.037C104.146 20.0427 104.125 20.043 104.106 20.0379Z" fill="#263238"/>
<path d="M115.197 32.0874L112.131 31.2708C112.131 31.2708 109.124 38.6738 108.059 39.1544C106.615 39.8148 102.956 42.1027 101.399 43.1847C101.314 43.5532 101.382 44.5291 101.576 44.7974C104.23 44.3139 109.31 42.3592 110.371 41.3656C112.791 39.0984 115.197 32.0874 115.197 32.0874Z" fill="#E58A7B"/>
<path d="M113.057 105.08C112.907 105.092 112.758 105.052 112.635 104.965C112.597 104.931 112.569 104.888 112.553 104.839C112.537 104.79 112.534 104.739 112.544 104.688C112.546 104.657 112.556 104.627 112.574 104.601C112.591 104.575 112.616 104.554 112.644 104.541C112.892 104.414 113.584 104.853 113.664 104.904C113.673 104.909 113.68 104.917 113.683 104.927C113.687 104.936 113.688 104.947 113.685 104.957C113.682 104.967 113.677 104.976 113.67 104.984C113.663 104.992 113.654 104.998 113.643 105.001C113.451 105.048 113.255 105.075 113.057 105.08ZM112.762 104.621C112.74 104.616 112.716 104.616 112.694 104.621C112.683 104.626 112.673 104.635 112.667 104.646C112.661 104.657 112.658 104.67 112.659 104.682C112.651 104.717 112.652 104.753 112.663 104.786C112.673 104.82 112.692 104.85 112.718 104.874C112.833 104.977 113.122 104.989 113.502 104.915C113.275 104.766 113.02 104.666 112.753 104.621H112.762Z" fill="#4CAF4F"/>
<path d="M113.629 105.001C113.621 105.003 113.613 105.003 113.605 105.001C113.384 104.877 112.968 104.391 113.03 104.143C113.039 104.104 113.062 104.069 113.093 104.044C113.125 104.018 113.164 104.005 113.204 104.004C113.244 103.999 113.284 104.002 113.322 104.014C113.36 104.026 113.395 104.046 113.425 104.072C113.67 104.281 113.685 104.924 113.685 104.957C113.686 104.966 113.684 104.976 113.679 104.985C113.675 104.993 113.667 105 113.658 105.004C113.648 105.006 113.638 105.005 113.629 105.001ZM113.234 104.102H113.213C113.145 104.102 113.136 104.14 113.133 104.155C113.098 104.299 113.36 104.668 113.579 104.842C113.578 104.593 113.5 104.35 113.357 104.146C113.323 104.116 113.279 104.1 113.234 104.102Z" fill="#4CAF4F"/>
<path d="M105.229 104.712C105.049 104.775 104.852 104.775 104.672 104.712C104.631 104.69 104.596 104.658 104.571 104.618C104.546 104.579 104.531 104.534 104.527 104.488C104.524 104.459 104.527 104.429 104.538 104.402C104.549 104.374 104.567 104.35 104.589 104.332C104.825 104.119 105.789 104.332 105.898 104.373C105.909 104.376 105.918 104.382 105.924 104.39C105.931 104.399 105.934 104.409 105.934 104.42C105.934 104.431 105.931 104.442 105.926 104.451C105.92 104.461 105.911 104.468 105.901 104.473C105.684 104.571 105.459 104.651 105.229 104.712ZM104.749 104.361C104.715 104.368 104.683 104.383 104.657 104.405C104.648 104.412 104.641 104.422 104.636 104.433C104.632 104.444 104.631 104.456 104.634 104.467C104.635 104.498 104.645 104.528 104.662 104.554C104.678 104.581 104.701 104.602 104.728 104.618C104.884 104.7 105.247 104.635 105.716 104.438C105.4 104.358 105.073 104.332 104.749 104.361Z" fill="#4CAF4F"/>
<path d="M105.892 104.473H105.869C105.574 104.42 104.984 104.081 104.967 103.827C104.967 103.768 104.993 103.686 105.135 103.639C105.183 103.622 105.233 103.615 105.284 103.618C105.335 103.621 105.384 103.634 105.43 103.656C105.748 103.813 105.916 104.379 105.925 104.405C105.927 104.414 105.927 104.424 105.924 104.432C105.922 104.441 105.917 104.449 105.91 104.455C105.906 104.463 105.9 104.469 105.892 104.473ZM105.194 103.727H105.164C105.073 103.76 105.073 103.798 105.073 103.81C105.073 103.963 105.5 104.243 105.798 104.337C105.73 104.101 105.584 103.893 105.385 103.748C105.326 103.718 105.258 103.71 105.194 103.727Z" fill="#4CAF4F"/>
<path d="M101.65 43.0107L98.5749 44.4258L98.2181 45.3103L99.3532 46.0739C99.3532 46.0739 101.476 45.844 102.08 44.4789L101.65 43.0107Z" fill="#E58A7B"/>
<path d="M101.78 44.8475C101.711 44.2566 101.516 43.6875 101.208 43.1788L101.694 42.8132C102.06 43.3994 102.294 44.0584 102.378 44.7443L101.78 44.8475Z" fill="#263238"/>
<path d="M102.304 43.4294C102.369 43.5316 102.401 43.6514 102.396 43.7725C102.39 43.8935 102.348 44.0099 102.274 44.1059C102.2 44.2018 102.098 44.2726 101.982 44.3087C101.867 44.3448 101.743 44.3443 101.627 44.3074C101.512 44.2705 101.411 44.199 101.337 44.1025C101.264 44.006 101.222 43.8893 101.218 43.7682C101.213 43.6472 101.246 43.5276 101.312 43.4258C101.377 43.324 101.473 43.245 101.585 43.1994C101.711 43.1352 101.857 43.1233 101.992 43.1664C102.127 43.2095 102.239 43.304 102.304 43.4294Z" fill="#263238"/>
<path d="M96.4963 45.5698L96.9062 45.9825L99.6657 44.8032L98.5749 44.4258L96.4963 45.5698Z" fill="#E58A7B"/>
<path opacity="0.2" d="M108.345 99.4581C108.363 99.4581 108.764 100.584 108.764 100.584L104.684 102.3L104.041 101.103L108.345 99.4581Z" fill="black"/>
<path opacity="0.2" d="M116.686 100.888C116.704 100.888 116.822 102.023 116.822 102.023H112.352L112.034 100.72L116.686 100.888Z" fill="black"/>
<path d="M115.996 31.2383C116.807 33.8534 113.638 37.4297 113.638 37.4297L109.259 35.643C109.778 34.1315 110.377 32.6484 111.052 31.2C112.396 28.3018 115.177 28.5996 115.996 31.2383Z" fill="#4CAF4F"/>
<path opacity="0.2" d="M115.996 31.2383C116.807 33.8534 113.638 37.4297 113.638 37.4297L109.259 35.643C109.778 34.1315 110.377 32.6484 111.052 31.2C112.396 28.3018 115.177 28.5996 115.996 31.2383Z" fill="black"/>
<path d="M72.4917 5.03714H70.6077V5.34081H72.4917V5.03714Z" fill="#4CAF4F"/>
<path d="M96.8791 17.0561L96.6511 22.1161L96.9545 22.1298L97.1825 17.0698L96.8791 17.0561Z" fill="#4CAF4F"/>
<path d="M96.2929 6.3992H61.5035L58.2663 78.8439H93.0557L96.2929 6.3992Z" fill="#4CAF4F"/>
<path opacity="0.56" d="M95.2552 7.39572H60.4657L57.2285 79.8404H92.018L95.2552 7.39572Z" fill="#FAFAFA"/>
<path opacity="0.07" d="M94.2174 8.38928H59.4279L56.1878 80.834H90.9772L94.2174 8.38928Z" fill="#4CAF4F"/>
<path d="M90.2579 39.9858H60.563L60.3153 45.5286H90.0102L90.2579 39.9858Z" fill="white"/>
<path d="M76.8934 35.9408H60.7428L60.6338 38.4203H76.7843L76.8934 35.9408Z" fill="#4CAF4F"/>
<path d="M89.5886 54.9453H59.8937L59.6461 60.488H89.3409L89.5886 54.9453Z" fill="white"/>
<path opacity="0.47" d="M84.1432 67.9736H64.1746L63.8768 74.6161H83.8454L84.1432 67.9736Z" fill="#4CAF4F"/>
<path d="M82.8076 75.648H62.839C62.8303 75.6502 62.8212 75.6502 62.8125 75.648C62.8096 75.6394 62.8096 75.63 62.8125 75.6214L63.1073 68.9761C63.1073 68.9715 63.1082 68.9671 63.11 68.9629C63.1119 68.9588 63.1145 68.9551 63.1178 68.952C63.1212 68.949 63.1251 68.9466 63.1294 68.9452C63.1337 68.9437 63.1382 68.9432 63.1427 68.9436H83.1113C83.1149 68.9418 83.119 68.9409 83.1231 68.9409C83.1272 68.9409 83.1312 68.9418 83.1349 68.9436C83.1369 68.9472 83.138 68.9513 83.138 68.9554C83.138 68.9596 83.1369 68.9636 83.1349 68.9672L82.8459 75.6273C82.8424 75.6343 82.8368 75.6399 82.83 75.6436C82.8231 75.6473 82.8153 75.6488 82.8076 75.648ZM62.8744 75.5772H82.7722L83.0671 69.0026H63.1692L62.8744 75.5772Z" fill="white"/>
<path d="M73.4056 50.9003H60.0736L59.9645 53.3827H73.2936L73.4056 50.9003Z" fill="#4CAF4F"/>
<path d="M83.7628 22.081C83.6866 23.6941 83.113 25.2441 82.1207 26.5181C81.3861 27.4805 80.4408 28.2618 79.3573 28.802C78.2738 29.3422 77.081 29.6269 75.8703 29.6345C74.892 29.6419 73.9225 29.449 73.0216 29.0676C72.1206 28.6862 71.3073 28.1243 70.6317 27.4167C69.9561 26.7091 69.4325 25.8706 69.0933 24.953C68.754 24.0353 68.6061 23.0579 68.6589 22.081C68.7626 20.0538 69.6368 18.1428 71.1028 16.7387C72.5687 15.3347 74.5157 14.5437 76.5455 14.5276C77.5246 14.5184 78.4951 14.7102 79.3971 15.0909C80.2992 15.4717 81.1136 16.0334 81.79 16.7413C82.4664 17.4492 82.9904 18.2883 83.3298 19.2067C83.6691 20.1251 83.8165 21.1034 83.7628 22.081Z" fill="white"/>
<path d="M84.4734 16.1078C84.4541 16.5368 84.3016 16.949 84.037 17.2871C83.8413 17.5427 83.5897 17.7502 83.3015 17.8938C83.0133 18.0374 82.6962 18.1133 82.3742 18.1156C82.0623 18.1175 81.7546 18.043 81.4781 17.8986C81.2016 17.7541 80.9647 17.5442 80.788 17.2871C80.5541 16.9397 80.4383 16.5262 80.4578 16.1078C80.4863 15.5696 80.7191 15.0625 81.1086 14.69C81.4981 14.3174 82.0151 14.1075 82.5541 14.103C82.8141 14.1006 83.0718 14.1515 83.3114 14.2526C83.551 14.3536 83.7674 14.5026 83.9472 14.6904C84.127 14.8783 84.2665 15.1009 84.3569 15.3447C84.4474 15.5885 84.4871 15.8482 84.4734 16.1078Z" fill="#4CAF4F"/>
<path d="M63.7618 42.7572C63.7477 42.9948 63.644 43.2181 63.4716 43.3823C63.2993 43.5464 63.0711 43.6391 62.8331 43.6417C62.7182 43.643 62.6043 43.6208 62.4983 43.5764C62.3923 43.532 62.2966 43.4663 62.217 43.3834C62.1374 43.3005 62.0757 43.2021 62.0356 43.0944C61.9955 42.9867 61.978 42.8719 61.984 42.7572C61.9968 42.5191 62.1001 42.2949 62.2727 42.1305C62.4454 41.9661 62.6743 41.8739 62.9127 41.8727C63.0275 41.8718 63.1413 41.8943 63.2471 41.9389C63.3529 41.9834 63.4484 42.0491 63.5279 42.1319C63.6074 42.2147 63.6692 42.3129 63.7094 42.4204C63.7496 42.5279 63.7675 42.6425 63.7618 42.7572Z" fill="#263238"/>
<path d="M67.7361 42.7572C67.7226 42.995 67.6191 43.2188 67.4467 43.383C67.2742 43.5473 67.0456 43.6398 66.8074 43.6416C66.6927 43.6426 66.5791 43.6201 66.4735 43.5755C66.3678 43.5309 66.2725 43.4651 66.1932 43.3823C66.1139 43.2994 66.0525 43.2012 66.0126 43.0937C65.9727 42.9862 65.9552 42.8717 65.9613 42.7572C65.974 42.5196 66.0769 42.2958 66.2489 42.1315C66.4209 41.9671 66.6491 41.8746 66.887 41.8727C67.0019 41.8713 67.1159 41.8935 67.2219 41.938C67.3278 41.9824 67.4236 42.0481 67.5032 42.131C67.5828 42.2139 67.6445 42.3122 67.6846 42.4199C67.7246 42.5276 67.7422 42.6424 67.7361 42.7572Z" fill="#263238"/>
<path d="M71.7133 42.7572C71.6998 42.995 71.5963 43.2188 71.4238 43.383C71.2514 43.5473 71.0228 43.6398 70.7846 43.6416C70.6698 43.6426 70.556 43.6201 70.4503 43.5755C70.3445 43.5309 70.2489 43.4652 70.1694 43.3824C70.0899 43.2996 70.0282 43.2014 69.988 43.0939C69.9477 42.9864 69.9299 42.8718 69.9355 42.7572C69.949 42.5193 70.0525 42.2956 70.225 42.1313C70.3975 41.967 70.626 41.8745 70.8642 41.8727C70.9791 41.8713 71.0931 41.8935 71.1991 41.938C71.305 41.9824 71.4008 42.0481 71.4804 42.131C71.56 42.2139 71.6217 42.3122 71.6617 42.4199C71.7018 42.5276 71.7194 42.6424 71.7133 42.7572Z" fill="#263238"/>
<path d="M63.0926 57.7167C63.0784 57.9542 62.9747 58.1776 62.8024 58.3417C62.63 58.5059 62.4019 58.5986 62.1639 58.6011C62.0491 58.6021 61.9353 58.5796 61.8295 58.535C61.7237 58.4904 61.6282 58.4247 61.5487 58.3419C61.4692 58.2591 61.4074 58.1609 61.3672 58.0534C61.327 57.9459 61.3091 57.8313 61.3148 57.7167C61.3282 57.4788 61.4317 57.2551 61.6042 57.0908C61.7767 56.9265 62.0053 56.834 62.2435 56.8322C62.3583 56.8312 62.472 56.8537 62.5778 56.8983C62.6836 56.9429 62.7792 57.0086 62.8587 57.0914C62.9382 57.1742 62.9999 57.2724 63.0401 57.3799C63.0803 57.4874 63.0982 57.602 63.0926 57.7167Z" fill="#263238"/>
<path d="M67.0669 57.7167C67.0534 57.954 66.9503 58.1773 66.7785 58.3415C66.6066 58.5057 66.3788 58.5985 66.1411 58.6011C66.0262 58.6025 65.9122 58.5803 65.8062 58.5359C65.7003 58.4914 65.6045 58.4257 65.5249 58.3428C65.4454 58.2599 65.3836 58.1616 65.3436 58.0539C65.3035 57.9462 65.2859 57.8314 65.292 57.7167C65.3055 57.4788 65.409 57.2551 65.5815 57.0908C65.754 56.9265 65.9825 56.834 66.2207 56.8322C66.3354 56.8312 66.449 56.8537 66.5546 56.8983C66.6603 56.9429 66.7557 57.0087 66.8349 57.0916C66.9142 57.1744 66.9757 57.2726 67.0155 57.3801C67.0554 57.4876 67.0729 57.6022 67.0669 57.7167Z" fill="#263238"/>
<path d="M71.0529 57.7166C71.0394 57.9545 70.9359 58.1782 70.7634 58.3425C70.5909 58.5068 70.3624 58.5992 70.1242 58.6011C70.0095 58.6016 69.8959 58.5788 69.7904 58.5341C69.6848 58.4894 69.5894 58.4237 69.51 58.341C69.4306 58.2582 69.3688 58.1602 69.3284 58.0529C69.288 57.9456 69.2699 57.8312 69.2751 57.7166C69.2893 57.4791 69.393 57.2557 69.5653 57.0915C69.7376 56.9274 69.9658 56.8347 70.2038 56.8322C70.3187 56.8308 70.4327 56.853 70.5386 56.8974C70.6446 56.9419 70.7404 57.0075 70.82 57.0904C70.8995 57.1733 70.9613 57.2717 71.0013 57.3794C71.0414 57.4871 71.0589 57.6019 71.0529 57.7166Z" fill="#263238"/>
<path d="M75.0213 57.7167C75.0071 57.9542 74.9034 58.1776 74.7311 58.3417C74.5587 58.5059 74.3306 58.5986 74.0926 58.6011C73.9779 58.6017 73.8643 58.5789 73.7587 58.5341C73.6532 58.4894 73.5578 58.4237 73.4783 58.341C73.3989 58.2583 73.3372 58.1603 73.2968 58.0529C73.2564 57.9456 73.2383 57.8312 73.2435 57.7167C73.2576 57.4791 73.3613 57.2557 73.5337 57.0916C73.706 56.9274 73.9342 56.8347 74.1722 56.8322C74.287 56.8312 74.4007 56.8537 74.5065 56.8983C74.6123 56.9429 74.7079 57.0086 74.7874 57.0914C74.8669 57.1742 74.9286 57.2724 74.9688 57.3799C75.0091 57.4874 75.0269 57.602 75.0213 57.7167Z" fill="#263238"/>
<path d="M79.0132 57.7167C78.999 57.9542 78.8953 58.1776 78.723 58.3417C78.5506 58.5059 78.3225 58.5986 78.0845 58.6011C77.9696 58.6025 77.8556 58.5803 77.7496 58.5359C77.6437 58.4914 77.5479 58.4257 77.4683 58.3428C77.3887 58.2599 77.327 58.1616 77.2869 58.0539C77.2469 57.9462 77.2293 57.8314 77.2354 57.7167C77.2489 57.4788 77.3524 57.2551 77.5249 57.0908C77.6973 56.9265 77.9259 56.834 78.1641 56.8322C78.2789 56.8312 78.3927 56.8537 78.4984 56.8983C78.6042 56.9429 78.6998 57.0086 78.7793 57.0914C78.8588 57.1742 78.9205 57.2724 78.9607 57.3799C79.001 57.4874 79.0188 57.602 79.0132 57.7167Z" fill="#263238"/>
<path d="M78.4098 21.6876C79.6438 20.4809 79.7093 18.5466 78.5561 17.3673C77.4028 16.188 75.4676 16.2103 74.2336 17.417C72.9996 18.6238 72.9341 20.558 74.0873 21.7373C75.2406 22.9166 77.1758 22.8944 78.4098 21.6876Z" fill="#4CAF4F"/>
<path d="M82.1206 26.5182C81.3861 27.4805 80.4408 28.2618 79.3573 28.802C78.2738 29.3422 77.081 29.627 75.8703 29.6345C74.6964 29.6444 73.538 29.3654 72.4973 28.8219C71.4567 28.2784 70.5657 27.4873 69.9031 26.5182C71.3359 25.0912 73.6031 24.1595 76.115 24.1595C78.627 24.1595 80.8146 25.0912 82.1206 26.5182Z" fill="#4CAF4F"/>
<path opacity="0.1" d="M78.4098 21.6876C79.6438 20.4809 79.7093 18.5466 78.5561 17.3673C77.4028 16.188 75.4676 16.2103 74.2336 17.417C72.9996 18.6238 72.9341 20.558 74.0873 21.7373C75.2406 22.9166 77.1758 22.8944 78.4098 21.6876Z" fill="white"/>
<path opacity="0.1" d="M82.1206 26.5182C81.3861 27.4805 80.4408 28.2618 79.3573 28.802C78.2738 29.3422 77.081 29.627 75.8703 29.6345C74.6964 29.6444 73.538 29.3654 72.4973 28.8219C71.4567 28.2784 70.5657 27.4873 69.9031 26.5182C71.3359 25.0912 73.6031 24.1595 76.115 24.1595C78.627 24.1595 80.8146 25.0912 82.1206 26.5182Z" fill="white"/>
<path d="M38.7429 46.8641C38.4628 47.4773 38.1679 48.1525 37.9114 48.807C37.6549 49.4615 37.3925 50.1367 37.1655 50.8089C36.702 52.1336 36.349 53.4945 36.1101 54.8775L36.0452 55.3109C36.039 55.3852 36.046 55.4601 36.0658 55.532C36.1354 55.7763 36.245 56.0075 36.3901 56.216C36.7688 56.7557 37.208 57.2503 37.6992 57.6901C38.2171 58.1718 38.7603 58.6255 39.3266 59.0493C39.8927 59.4856 40.4882 59.9101 41.0749 60.3111L40.5236 61.3459C39.1227 60.7355 37.7929 59.9733 36.5582 59.0728C35.8995 58.5924 35.305 58.0297 34.7892 57.3982C34.4835 57.0224 34.2451 56.5964 34.0846 56.1393C33.9913 55.8538 33.9435 55.5553 33.9431 55.2548C33.9431 55.1841 33.9431 55.0809 33.9431 55.0308V54.8863L33.9726 54.5915C34.1416 53.0554 34.4646 51.5403 34.9366 50.0688C35.1666 49.3436 35.4113 48.6212 35.6914 47.9166C35.9715 47.212 36.2604 46.5221 36.6172 45.8057L38.7429 46.8641Z" fill="#E58A7B"/>
<path d="M40.6592 60.1283L42.7436 59.0728L42.2041 61.3607C42.2041 61.3607 40.7742 61.7616 40.1108 61.0658L40.6592 60.1283Z" fill="#E58A7B"/>
<path d="M44.6512 59.4472L44.0969 61.34L42.2041 61.3607L42.7436 59.0728L44.6512 59.4472Z" fill="#E58A7B"/>
<path d="M47.5935 35.8258C47.705 36.2344 47.8602 36.6298 48.0564 37.0051C47.9991 37.0701 47.9253 37.1184 47.8428 37.1449C47.7602 37.1713 47.6721 37.175 47.5877 37.1555L47.5935 35.8258Z" fill="#DF5753"/>
<path d="M47.5316 35.8435C47.6537 35.8435 47.7527 35.6917 47.7527 35.5045C47.7527 35.3172 47.6537 35.1654 47.5316 35.1654C47.4095 35.1654 47.3105 35.3172 47.3105 35.5045C47.3105 35.6917 47.4095 35.8435 47.5316 35.8435Z" fill="#263238"/>
<path d="M47.4668 35.1772L47.9149 35.0504C47.9149 35.0504 47.6967 35.3983 47.4668 35.1772Z" fill="#263238"/>
<path d="M41.8356 37.9898C42.1039 39.3607 42.3722 41.8756 41.411 42.7925C41.411 42.7925 41.7884 44.1841 44.3387 44.1841C47.1425 44.1841 45.6772 42.7925 45.6772 42.7925C44.147 42.4269 44.1854 41.2919 44.4537 40.2246L41.8356 37.9898Z" fill="#E58A7B"/>
<path d="M41.0897 34.8646C41.2312 37.1554 41.243 38.1284 42.3987 39.3047C44.1411 41.0737 46.9243 40.4015 47.4697 38.1254C47.9621 36.0616 47.6496 32.6652 45.4059 31.7542C44.9134 31.5513 44.3773 31.4774 43.8483 31.5395C43.3193 31.6016 42.8149 31.7976 42.3828 32.109C41.9507 32.4204 41.6051 32.8369 41.3788 33.3191C41.1526 33.8013 41.053 34.3333 41.0897 34.8646Z" fill="#E58A7B"/>
<path d="M41.3167 32.2879C40.1669 32.7065 38.6338 32.394 39.2352 35.9408C39.8721 39.6969 38.8932 40.9322 38.8932 40.9322C38.8932 40.9322 43.2537 41.8609 47.7056 40.8762C47.7056 40.8762 46.3464 38.4999 46.7268 36.7486C47.2132 34.5374 46.83 33.7207 46.83 33.7207C46.83 33.7207 42.9324 31.6982 41.3167 32.2879Z" fill="#263238"/>
<path d="M46.1813 36.0587C46.1825 36.4943 46.3073 36.9206 46.541 37.2881C46.8535 37.7657 47.2221 37.5829 47.3135 37.0758C47.396 36.6306 47.3341 35.8435 46.9361 35.5368C46.5381 35.2302 46.1872 35.5309 46.1813 36.0587Z" fill="#E58A7B"/>
<path d="M40.3172 32.6741C39.987 31.7454 41.5614 30.3155 44.8929 30.9051C48.2245 31.4948 48.3689 34.2691 48.3689 34.2691L47.6967 33.4672L47.7262 34.3104L44.3033 34.9678L40.3172 32.6741Z" fill="#263238"/>
<path d="M40.6003 42.9488C40.5806 42.8142 40.6143 42.6772 40.6941 42.5671C40.774 42.4569 40.8937 42.3823 41.0278 42.3592C42.0656 42.1882 44.4242 41.8403 45.6094 42.0054C46.4938 42.1292 46.7238 42.6422 46.7621 43.0638C46.7681 43.1376 46.7583 43.2119 46.7332 43.2816C46.7081 43.3512 46.6684 43.4148 46.6167 43.4678C46.5651 43.5209 46.5026 43.5623 46.4336 43.5892C46.3646 43.6161 46.2907 43.628 46.2167 43.624L41.0926 43.394C40.9718 43.3879 40.8568 43.3403 40.7671 43.2591C40.6774 43.178 40.6185 43.0684 40.6003 42.9488Z" fill="#4CAF4F"/>
<path opacity="0.6" d="M40.6003 42.9488C40.5806 42.8142 40.6143 42.6772 40.6941 42.5671C40.774 42.4569 40.8937 42.3823 41.0278 42.3592C42.0656 42.1882 44.4242 41.8403 45.6094 42.0054C46.4938 42.1292 46.7238 42.6422 46.7621 43.0638C46.7681 43.1376 46.7583 43.2119 46.7332 43.2816C46.7081 43.3512 46.6684 43.4148 46.6167 43.4678C46.5651 43.5209 46.5026 43.5623 46.4336 43.5892C46.3646 43.6161 46.2907 43.628 46.2167 43.624L41.0926 43.394C40.9718 43.3879 40.8568 43.3403 40.7671 43.2591C40.6774 43.178 40.6185 43.0684 40.6003 42.9488Z" fill="black"/>
<path d="M43.5633 94.4549L45.4649 95.7758L48.6461 91.4625L46.7445 90.1446L43.5633 94.4549Z" fill="#E58A7B"/>
<path d="M39.1291 94.3694L41.1368 95.5134L43.9524 90.9524L41.9447 89.8085L39.1291 94.3694Z" fill="#E58A7B"/>
<path d="M48.6431 91.4625L47.0039 93.6855L45.1023 92.3676L46.7415 90.1446L48.6431 91.4625Z" fill="#CF6F64"/>
<path d="M41.9417 89.8085L43.9525 90.9553L42.5019 93.3051L40.4912 92.1582L41.9417 89.8085Z" fill="#CF6F64"/>
<path d="M45.1671 57.3481C45.1671 57.3481 52.5908 66.7029 51.1963 75.6509C50.073 82.8771 43.5574 92.6624 43.5574 92.6624L40.4941 91.1411C42.6533 86.8146 44.4959 82.3372 46.0074 77.7442C46.4735 76.3182 46.6095 74.8049 46.4052 73.3187C46.2009 71.8324 45.6617 70.412 44.8281 69.1647C41.0661 63.6721 35.0399 66.9417 39.0937 57.3481H45.1671Z" fill="#4CAF4F"/>
<path opacity="0.6" d="M45.1671 57.3481C45.1671 57.3481 52.5908 66.7029 51.1963 75.6509C50.073 82.8771 43.5574 92.6624 43.5574 92.6624L40.4941 91.1411C42.6533 86.8146 44.4959 82.3372 46.0074 77.7442C46.4735 76.3182 46.6095 74.8049 46.4052 73.3187C46.2009 71.8324 45.6617 70.412 44.8281 69.1647C41.0661 63.6721 35.0399 66.9417 39.0937 57.3481H45.1671Z" fill="black"/>
<path opacity="0.4" d="M48.8082 63.3567L47.7292 62.2835C47.7292 62.369 49.8195 75.2736 50.4062 78.8999C50.7524 77.8406 51.0175 76.7564 51.1993 75.6568C51.8892 71.2669 50.4475 66.7826 48.8082 63.3567Z" fill="black"/>
<path d="M48.481 57.3481C48.481 57.3481 57.4201 69.1058 57.6737 76.155C57.883 82.0516 47.9444 93.4761 47.9444 93.4761L45.0551 91.6069C45.0551 91.6069 50.872 83.4933 52.3373 76.8656C51.7712 70.2969 39.8013 57.3481 39.8013 57.3481H48.481Z" fill="#4CAF4F"/>
<path opacity="0.6" d="M48.481 57.3481C48.481 57.3481 57.4201 69.1058 57.6737 76.155C57.883 82.0516 47.9444 93.4761 47.9444 93.4761L45.0551 91.6069C45.0551 91.6069 50.872 83.4933 52.3373 76.8656C51.7712 70.2969 39.8013 57.3481 39.8013 57.3481H48.481Z" fill="black"/>
<path d="M37.4221 43.3173C36.4668 43.5443 35.5499 47.0174 35.5499 47.0174L39.2854 49.5116C39.2854 49.5116 40.5295 46.7638 40.0932 45.5609C39.6421 44.3079 38.622 43.0313 37.4221 43.3173Z" fill="#4CAF4F"/>
<path opacity="0.2" d="M38.1532 45.5551L37.8938 48.5829L39.2824 49.5146C39.6658 48.6514 39.9497 47.7473 40.1286 46.8199L38.1532 45.5551Z" fill="black"/>
<path d="M49.5866 43.3852C49.5866 43.3852 50.6892 43.7714 48.481 57.3452H39.0878C39.247 53.5124 39.25 51.1538 37.422 43.3174C38.7373 43.0463 40.0704 42.8709 41.411 42.7926C42.8313 42.6907 44.2569 42.6907 45.6772 42.7926C47.511 42.9606 49.5866 43.3852 49.5866 43.3852Z" fill="#4CAF4F"/>
<path d="M50.5418 45.5551C50.7541 46.1447 50.9781 46.7786 51.214 47.3889C51.4499 47.9992 51.6739 48.6272 51.9127 49.2463L52.6351 51.0978L52.8178 51.5607L52.9122 51.7906L52.9564 51.9056C52.9564 51.9263 52.9564 51.9263 52.9564 51.9233C52.9025 51.8474 52.8319 51.7848 52.75 51.7405C52.6334 51.6719 52.5019 51.6324 52.3668 51.6255C52.2545 51.622 52.1428 51.6432 52.0395 51.6875C51.9039 51.7494 51.9039 51.7759 51.9068 51.773C51.9313 51.7533 51.9532 51.7305 51.9717 51.7051C52.1349 51.4909 52.2761 51.2607 52.3933 51.0182C52.5319 50.747 52.6645 50.458 52.7972 50.1662C53.0567 49.5765 53.2955 48.9662 53.5343 48.35C53.7731 47.7338 54.0001 47.1118 54.2212 46.4838L54.8934 44.6028L56.0285 44.8976C55.8044 46.242 55.5155 47.551 55.1676 48.8837C54.9996 49.547 54.802 50.2045 54.578 50.8678C54.4659 51.201 54.3421 51.5312 54.2006 51.8702C54.0531 52.2382 53.8715 52.5916 53.6581 52.9257C53.5797 53.0382 53.493 53.1446 53.3987 53.2441C53.2481 53.4067 53.0654 53.5363 52.8621 53.6245C52.6817 53.7019 52.4863 53.7382 52.2901 53.7306C52.0704 53.7224 51.8563 53.6585 51.668 53.5449C51.4459 53.4062 51.2616 53.2148 51.1314 52.9876C51.0872 52.911 51.0489 52.8343 51.0224 52.7783L50.9663 52.6663L50.8543 52.4363L50.6302 51.9793C50.3354 51.3661 50.0406 50.747 49.7841 50.1249C49.5276 49.5028 49.2563 48.8719 49.0028 48.238C48.7492 47.6041 48.5222 46.9702 48.307 46.2862L50.5418 45.5551Z" fill="#E58A7B"/>
<path d="M49.5866 43.3852C50.7157 43.6534 51.9864 46.9909 51.9864 46.9909L48.6284 49.8477C48.6284 49.8477 46.4555 46.2096 46.8948 45.0096C47.3518 43.7596 48.1124 43.0343 49.5866 43.3852Z" fill="#4CAF4F"/>
<path d="M55.4271 43.5473L56.6064 42.5626L57.426 43.8392L56.8216 44.9035C56.8216 44.9035 55.8605 45.788 55.0114 45.3369C54.8766 45.034 54.8443 44.6954 54.9193 44.3724C54.9943 44.0495 55.1726 43.7598 55.4271 43.5473Z" fill="#E58A7B"/>
<path d="M58.735 42.5655L58.6466 42.8869L56.7803 43.1994L56.5975 42.5626L58.735 42.5655Z" fill="#E58A7B"/>
<path d="M48.1744 93.6265L44.8074 91.4507L45.4118 90.4011L49.1945 92.7272L48.1744 93.6265Z" fill="#4CAF4F"/>
<path d="M42.4547 95.3601C42.1593 95.324 41.8755 95.2233 41.6233 95.0652C41.6129 95.0616 41.6039 95.0548 41.5975 95.0459C41.5911 95.0369 41.5877 95.0261 41.5877 95.0151C41.5877 95.0041 41.5911 94.9933 41.5975 94.9844C41.6039 94.9754 41.6129 94.9686 41.6233 94.965C41.7147 94.9355 42.5078 94.6908 42.7378 94.8795C42.7636 94.901 42.7833 94.929 42.7947 94.9606C42.8061 94.9922 42.8088 95.0263 42.8026 95.0593C42.7985 95.1124 42.7809 95.1636 42.7515 95.2079C42.7221 95.2523 42.6819 95.2884 42.6346 95.3129C42.5794 95.343 42.5176 95.3592 42.4547 95.3601ZM41.7914 95.0357C42.1599 95.2244 42.4547 95.2922 42.5962 95.2215C42.6271 95.2044 42.653 95.1797 42.6716 95.1498C42.6901 95.1199 42.7008 95.0857 42.7024 95.0505C42.7024 95.0033 42.7024 94.9827 42.6758 94.9709C42.552 94.8706 42.1098 94.9473 41.7855 95.0357H41.7914Z" fill="#263238"/>
<path d="M41.6439 95.0858C41.6284 95.0856 41.6135 95.0793 41.6027 95.0682C41.5983 95.06 41.596 95.0509 41.596 95.0416C41.596 95.0324 41.5983 95.0232 41.6027 95.0151C41.6027 94.9886 41.7943 94.3488 42.095 94.2043C42.1334 94.1868 42.1752 94.1777 42.2174 94.1777C42.2596 94.1777 42.3013 94.1868 42.3397 94.2043C42.3811 94.2174 42.417 94.2439 42.4415 94.2797C42.4661 94.3155 42.478 94.3585 42.4754 94.4019C42.4547 94.6672 41.9152 95.0328 41.6675 95.0947L41.6439 95.0858ZM42.2159 94.281C42.1872 94.2819 42.1591 94.2889 42.1334 94.3016C41.9506 94.3901 41.8002 94.735 41.7265 94.9443C41.9859 94.8352 42.3427 94.5463 42.3545 94.3842C42.3545 94.3576 42.3545 94.3252 42.2867 94.2957C42.2646 94.2839 42.2407 94.2759 42.2159 94.2721V94.281Z" fill="#263238"/>
<path d="M46.6619 96.6337C46.3287 96.6337 45.8659 96.2062 45.6123 95.9438C45.6058 95.9348 45.6024 95.9239 45.6024 95.9128C45.6024 95.9017 45.6058 95.8909 45.6123 95.8819C45.6181 95.8724 45.6264 95.8646 45.6363 95.8594C45.6461 95.8542 45.6572 95.8518 45.6683 95.8524C45.7863 95.8524 46.8093 96.0057 46.9538 96.2946C46.9691 96.3205 46.9772 96.35 46.9772 96.3801C46.9772 96.4102 46.9691 96.4397 46.9538 96.4656C46.9321 96.5106 46.8994 96.5494 46.8586 96.5782C46.8179 96.6071 46.7705 96.6252 46.7209 96.6307L46.6619 96.6337ZM45.8069 95.985C46.1784 96.3447 46.5056 96.5452 46.6914 96.5216C46.7239 96.5174 46.7549 96.5052 46.7816 96.4862C46.8084 96.4672 46.83 96.4419 46.8447 96.4125C46.8513 96.4025 46.8548 96.3907 46.8548 96.3786C46.8548 96.3666 46.8513 96.3548 46.8447 96.3447C46.768 96.1855 46.2226 96.0499 45.8069 95.985Z" fill="#263238"/>
<path d="M45.8393 95.9703C45.7732 95.9722 45.707 95.9673 45.6418 95.9556C45.6327 95.9542 45.6241 95.9505 45.6169 95.9448C45.6096 95.9392 45.604 95.9317 45.6005 95.9232C45.5961 95.9145 45.5938 95.9049 45.5938 95.8952C45.5938 95.8854 45.5961 95.8758 45.6005 95.8671C45.6182 95.8465 46.0162 95.3659 46.3936 95.3335C46.5004 95.3252 46.6063 95.3591 46.6884 95.4279C46.8034 95.5281 46.7975 95.6165 46.768 95.6726C46.6943 95.873 46.1843 95.9703 45.8393 95.9703ZM45.7627 95.8613C46.0929 95.8789 46.6206 95.7698 46.6884 95.6254C46.6884 95.6254 46.712 95.5782 46.6354 95.5134C46.6049 95.4868 46.5692 95.4669 46.5307 95.4547C46.4921 95.4425 46.4515 95.4384 46.4113 95.4426C46.1571 95.5135 45.9307 95.6607 45.7627 95.8642V95.8613Z" fill="#263238"/>
<path d="M41.7236 94.7674L39.2234 94.0599C39.1803 94.0468 39.1339 94.0501 39.0931 94.0692C39.0523 94.0882 39.02 94.1216 39.0023 94.163L38.1591 96.0588C38.1393 96.1073 38.13 96.1595 38.1318 96.2119C38.1336 96.2643 38.1465 96.3158 38.1697 96.3628C38.1928 96.4099 38.2256 96.4515 38.2659 96.485C38.3063 96.5185 38.3533 96.543 38.4038 96.557C39.2883 96.787 39.7128 96.8519 40.8125 97.1673C41.4906 97.356 42.4577 97.7069 43.3923 97.9722C44.3269 98.2375 44.6394 97.3265 44.2768 97.1319C42.6375 96.2652 42.5078 95.6578 42.0597 95.0092C41.9794 94.8917 41.8605 94.8062 41.7236 94.7674Z" fill="#4CAF4F"/>
<path d="M45.6801 95.5988L43.5456 94.1247C43.5094 94.0983 43.4648 94.0862 43.4202 94.0905C43.3757 94.0949 43.3342 94.1154 43.3038 94.1483L41.8887 95.6696C41.8542 95.7089 41.8284 95.7551 41.8132 95.8051C41.7979 95.8552 41.7935 95.9079 41.8002 95.9598C41.8069 96.0116 41.8246 96.0615 41.852 96.106C41.8795 96.1505 41.9161 96.1887 41.9594 96.218C42.7112 96.7221 43.1004 96.9256 44.0409 97.5771C44.6305 97.9781 45.7715 98.8684 46.5675 99.4227C47.3636 99.977 47.9562 99.2163 47.6731 98.9156C46.4054 97.5624 46.1283 96.7133 45.9189 95.9438C45.8826 95.8042 45.798 95.682 45.6801 95.5988Z" fill="#4CAF4F"/>
<path d="M43.9495 92.8569L40.102 90.9435L40.5 89.8998L44.6099 91.9165L43.9495 92.8569Z" fill="#4CAF4F"/>
<path d="M38.9463 56.7938L38.622 57.6429C38.5895 57.7078 38.6662 57.7756 38.7753 57.7756H48.5281C48.6136 57.7756 48.6844 57.7343 48.6903 57.6813L48.7728 56.8381C48.7728 56.7821 48.705 56.7319 48.6136 56.7319H39.0996C39.071 56.7292 39.0421 56.7335 39.0154 56.7442C38.9887 56.755 38.965 56.772 38.9463 56.7938Z" fill="#4CAF4F"/>
<path opacity="0.4" d="M38.9463 56.7938L38.622 57.6429C38.5895 57.7078 38.6662 57.7756 38.7753 57.7756H48.5281C48.6136 57.7756 48.6844 57.7343 48.6903 57.6813L48.7728 56.8381C48.7728 56.7821 48.705 56.7319 48.6136 56.7319H39.0996C39.071 56.7292 39.0421 56.7335 39.0154 56.7442C38.9887 56.755 38.965 56.772 38.9463 56.7938Z" fill="white"/>
<path d="M40.4823 57.8581H40.2258C40.1757 57.8581 40.1374 57.8316 40.1403 57.7992L40.2612 56.7054C40.2612 56.6759 40.3084 56.6494 40.3585 56.6494H40.615C40.6651 56.6494 40.7035 56.6759 40.7005 56.7054L40.5796 57.7992C40.5767 57.8316 40.5325 57.8581 40.4823 57.8581Z" fill="#4CAF4F"/>
<path d="M46.4968 57.8581H46.2433C46.1931 57.8581 46.1548 57.8316 46.1578 57.7992L46.2757 56.7054C46.2757 56.6759 46.3258 56.6494 46.3759 56.6494H46.6295C46.6796 56.6494 46.7209 56.6759 46.715 56.7054L46.597 57.7992C46.5823 57.8316 46.5499 57.8581 46.4968 57.8581Z" fill="#4CAF4F"/>
<g style="mix-blend-mode:multiply">
<path d="M40.2583 107.787C44.6204 107.787 48.1567 107.531 48.1567 107.215C48.1567 106.899 44.6204 106.643 40.2583 106.643C35.8961 106.643 32.3599 106.899 32.3599 107.215C32.3599 107.531 35.8961 107.787 40.2583 107.787Z" fill="#F5F5F5"/>
</g>
<path d="M45.0698 106.407C43.6724 106 42.1216 105.478 41.184 104.933C41.1575 104.915 41.128 104.907 41.1015 104.892V98.5648H43.9289C44.1435 98.5521 44.3452 98.4579 44.4926 98.3014C44.6401 98.1449 44.7222 97.9381 44.7222 97.7231C44.7222 97.5081 44.6401 97.3012 44.4926 97.1447C44.3452 96.9883 44.1435 96.894 43.9289 96.8813H41.1162V68.0414H39.418V96.8813H36.6083C36.4936 96.8745 36.3787 96.8913 36.2707 96.9305C36.1626 96.9697 36.0638 97.0306 35.9801 97.1095C35.8965 97.1883 35.8299 97.2834 35.7843 97.3889C35.7388 97.4944 35.7153 97.6081 35.7153 97.7231C35.7153 97.838 35.7388 97.9517 35.7843 98.0572C35.8299 98.1627 35.8965 98.2578 35.9801 98.3367C36.0638 98.4155 36.1626 98.4764 36.2707 98.5156C36.3787 98.5549 36.4936 98.5716 36.6083 98.5648H39.418V104.883C39.3915 104.883 39.3649 104.906 39.3384 104.924C38.3861 105.478 36.8471 106 35.4497 106.398C35.3553 106.427 35.2742 106.488 35.2212 106.571C35.1681 106.655 35.1466 106.754 35.1605 106.852C35.1744 106.949 35.2228 107.039 35.2969 107.104C35.3711 107.169 35.466 107.205 35.5646 107.206H44.9549C45.0491 107.2 45.1383 107.161 45.2075 107.097C45.2768 107.033 45.3219 106.947 45.3353 106.853C45.3488 106.76 45.3298 106.664 45.2815 106.583C45.2331 106.502 45.1584 106.44 45.0698 106.407Z" fill="#E0E0E0"/>
<path d="M45.5032 65.105H35.0192C34.1758 65.105 33.492 65.7887 33.492 66.6322V69.7485C33.492 70.5919 34.1758 71.2757 35.0192 71.2757H45.5032C46.3467 71.2757 47.0304 70.5919 47.0304 69.7485V66.6322C47.0304 65.7887 46.3467 65.105 45.5032 65.105Z" fill="#4CAF4F"/>
<path d="M34.9219 71.2786V71.8152C34.9219 72.2575 35.4025 72.6171 35.9921 72.6171H44.5421C45.1317 72.6171 45.6123 72.2575 45.6123 71.8152V71.2786H34.9219Z" fill="#4CAF4F"/>
<path opacity="0.3" d="M34.9219 71.2786V71.8152C34.9219 72.2575 35.4025 72.6171 35.9921 72.6171H44.5421C45.1317 72.6171 45.6123 72.2575 45.6123 71.8152V71.2786H34.9219Z" fill="white"/>
</svg>
